  0
SECTION
  2
HEADER
  9
$ACADVER
  1
AC1032
  9
$ACADMAINTVER
 90
        4
  9
$DWGCODEPAGE
  3
ANSI_1252
  9
$REQUIREDVERSIONS
160
                 0
  9
$INSBASE
 10
0.0
 20
0.0
 30
0.0
  9
$EXTMIN
 10
164.3658359295137
 20
178.0600705927883
 30
0.0
  9
$EXTMAX
 10
416.6481010461474
 20
210.0600706714364
 30
0.0
  9
$LIMMIN
 10
0.0
 20
0.0
  9
$LIMMAX
 10
420.0
 20
297.0
  9
$ORTHOMODE
 70
     0
  9
$REGENMODE
 70
     1
  9
$FILLMODE
 70
     1
  9
$QTEXTMODE
 70
     0
  9
$MIRRTEXT
 70
     1
  9
$LTSCALE
 40
1.0
  9
$ATTMODE
 70
     1
  9
$TEXTSIZE
 40
2.5
  9
$TRACEWID
 40
1.0
  9
$TEXTSTYLE
  7
Standard
  9
$CLAYER
  8
Outline
  9
$CELTYPE
  6
ByLayer
  9
$CECOLOR
 62
   256
  9
$CELTSCALE
 40
1.0
  9
$DISPSILH
 70
     0
  9
$DIMSCALE
 40
1.0
  9
$DIMASZ
 40
2.5
  9
$DIMEXO
 40
0.625
  9
$DIMDLI
 40
3.75
  9
$DIMRND
 40
0.0
  9
$DIMDLE
 40
0.0
  9
$DIMEXE
 40
1.25
  9
$DIMTP
 40
0.0
  9
$DIMTM
 40
0.0
  9
$DIMTXT
 40
2.5
  9
$DIMCEN
 40
2.5
  9
$DIMTSZ
 40
0.0
  9
$DIMTOL
 70
     0
  9
$DIMLIM
 70
     0
  9
$DIMTIH
 70
     0
  9
$DIMTOH
 70
     0
  9
$DIMSE1
 70
     0
  9
$DIMSE2
 70
     0
  9
$DIMTAD
 70
     1
  9
$DIMZIN
 70
     8
  9
$DIMBLK
  1

  9
$DIMASO
 70
     1
  9
$DIMSHO
 70
     1
  9
$DIMPOST
  1

  9
$DIMAPOST
  1

  9
$DIMALT
 70
     0
  9
$DIMALTD
 70
     3
  9
$DIMALTF
 40
0.03937007874016
  9
$DIMLFAC
 40
1.0
  9
$DIMTOFL
 70
     1
  9
$DIMTVP
 40
0.0
  9
$DIMTIX
 70
     0
  9
$DIMSOXD
 70
     0
  9
$DIMSAH
 70
     0
  9
$DIMBLK1
  1

  9
$DIMBLK2
  1

  9
$DIMSTYLE
  2
ISO-25
  9
$DIMCLRD
 70
     0
  9
$DIMCLRE
 70
     0
  9
$DIMCLRT
 70
     0
  9
$DIMTFAC
 40
1.0
  9
$DIMGAP
 40
0.625
  9
$DIMJUST
 70
     0
  9
$DIMSD1
 70
     0
  9
$DIMSD2
 70
     0
  9
$DIMTOLJ
 70
     0
  9
$DIMTZIN
 70
     8
  9
$DIMALTZ
 70
     0
  9
$DIMALTTZ
 70
     0
  9
$DIMUPT
 70
     0
  9
$DIMDEC
 70
     2
  9
$DIMTDEC
 70
     2
  9
$DIMALTU
 70
     2
  9
$DIMALTTD
 70
     3
  9
$DIMTXSTY
  7
Standard
  9
$DIMAUNIT
 70
     0
  9
$DIMADEC
 70
     0
  9
$DIMALTRND
 40
0.0
  9
$DIMAZIN
 70
     0
  9
$DIMDSEP
 70
    44
  9
$DIMATFIT
 70
     3
  9
$DIMFRAC
 70
     0
  9
$DIMLDRBLK
  1

  9
$DIMLUNIT
 70
     2
  9
$DIMLWD
 70
    -2
  9
$DIMLWE
 70
    -2
  9
$DIMTMOVE
 70
     0
  9
$DIMFXL
 40
1.0
  9
$DIMFXLON
 70
     0
  9
$DIMJOGANG
 40
0.7853981633974483
  9
$DIMTFILL
 70
     0
  9
$DIMTFILLCLR
 70
     0
  9
$DIMARCSYM
 70
     0
  9
$DIMLTYPE
  6

  9
$DIMLTEX1
  6

  9
$DIMLTEX2
  6

  9
$DIMTXTDIRECTION
 70
     0
  9
$LUNITS
 70
     2
  9
$LUPREC
 70
     4
  9
$SKETCHINC
 40
1.0
  9
$FILLETRAD
 40
10.0
  9
$AUNITS
 70
     0
  9
$AUPREC
 70
     0
  9
$MENU
  1
.
  9
$ELEVATION
 40
0.0
  9
$PELEVATION
 40
0.0
  9
$THICKNESS
 40
0.0
  9
$LIMCHECK
 70
     0
  9
$CHAMFERA
 40
0.0
  9
$CHAMFERB
 40
0.0
  9
$CHAMFERC
 40
0.0
  9
$CHAMFERD
 40
0.0
  9
$SKPOLY
 70
     0
  9
$TDCREATE
 40
2459743.770557257
  9
$TDUCREATE
 40
2459743.687223923
  9
$TDUPDATE
 40
2459743.770557373
  9
$TDUUPDATE
 40
2459743.687224039
  9
$TDINDWG
 40
0.0000000116
  9
$TDUSRTIMER
 40
0.0000000116
  9
$USRTIMER
 70
     1
  9
$ANGBASE
 50
0.0
  9
$ANGDIR
 70
     0
  9
$PDMODE
 70
     0
  9
$PDSIZE
 40
0.0
  9
$PLINEWID
 40
0.0
  9
$SPLFRAME
 70
     0
  9
$SPLINETYPE
 70
     6
  9
$SPLINESEGS
 70
     8
  9
$HANDSEED
  5
B9
  9
$SURFTAB1
 70
     6
  9
$SURFTAB2
 70
     6
  9
$SURFTYPE
 70
     6
  9
$SURFU
 70
     6
  9
$SURFV
 70
     6
  9
$UCSBASE
  2

  9
$UCSNAME
  2

  9
$UCSORG
 10
0.0
 20
0.0
 30
0.0
  9
$UCSXDIR
 10
1.0
 20
0.0
 30
0.0
  9
$UCSYDIR
 10
0.0
 20
1.0
 30
0.0
  9
$UCSORTHOREF
  2

  9
$UCSORTHOVIEW
 70
     0
  9
$UCSORGTOP
 10
0.0
 20
0.0
 30
0.0
  9
$UCSORGBOTTOM
 10
0.0
 20
0.0
 30
0.0
  9
$UCSORGLEFT
 10
0.0
 20
0.0
 30
0.0
  9
$UCSORGRIGHT
 10
0.0
 20
0.0
 30
0.0
  9
$UCSORGFRONT
 10
0.0
 20
0.0
 30
0.0
  9
$UCSORGBACK
 10
0.0
 20
0.0
 30
0.0
  9
$PUCSBASE
  2

  9
$PUCSNAME
  2

  9
$PUCSORG
 10
0.0
 20
0.0
 30
0.0
  9
$PUCSXDIR
 10
1.0
 20
0.0
 30
0.0
  9
$PUCSYDIR
 10
0.0
 20
1.0
 30
0.0
  9
$PUCSORTHOREF
  2

  9
$PUCSORTHOVIEW
 70
     0
  9
$PUCSORGTOP
 10
0.0
 20
0.0
 30
0.0
  9
$PUCSORGBOTTOM
 10
0.0
 20
0.0
 30
0.0
  9
$PUCSORGLEFT
 10
0.0
 20
0.0
 30
0.0
  9
$PUCSORGRIGHT
 10
0.0
 20
0.0
 30
0.0
  9
$PUCSORGFRONT
 10
0.0
 20
0.0
 30
0.0
  9
$PUCSORGBACK
 10
0.0
 20
0.0
 30
0.0
  9
$USERI1
 70
     0
  9
$USERI2
 70
     0
  9
$USERI3
 70
     0
  9
$USERI4
 70
     0
  9
$USERI5
 70
     0
  9
$USERR1
 40
0.0
  9
$USERR2
 40
0.0
  9
$USERR3
 40
0.0
  9
$USERR4
 40
0.0
  9
$USERR5
 40
0.0
  9
$WORLDVIEW
 70
     1
  9
$SHADEDGE
 70
     3
  9
$SHADEDIF
 70
    70
  9
$TILEMODE
 70
     1
  9
$MAXACTVP
 70
    64
  9
$PINSBASE
 10
0.0
 20
0.0
 30
0.0
  9
$PLIMCHECK
 70
     0
  9
$PEXTMIN
 10
1.000000000000000E+20
 20
1.000000000000000E+20
 30
1.000000000000000E+20
  9
$PEXTMAX
 10
-1.000000000000000E+20
 20
-1.000000000000000E+20
 30
-1.000000000000000E+20
  9
$PLIMMIN
 10
0.0
 20
0.0
  9
$PLIMMAX
 10
420.0
 20
297.0
  9
$UNITMODE
 70
     0
  9
$VISRETAIN
 70
     1
  9
$PLINEGEN
 70
     0
  9
$PSLTSCALE
 70
     1
  9
$TREEDEPTH
 70
  3020
  9
$CMLSTYLE
  2
Standard
  9
$CMLJUST
 70
     0
  9
$CMLSCALE
 40
20.0
  9
$PROXYGRAPHICS
 70
     1
  9
$MEASUREMENT
 70
     1
  9
$CELWEIGHT
370
    -1
  9
$ENDCAPS
280
     0
  9
$JOINSTYLE
280
     0
  9
$LWDISPLAY
290
     0
  9
$INSUNITS
 70
     4
  9
$HYPERLINKBASE
  1

  9
$STYLESHEET
  1

  9
$XEDIT
290
     1
  9
$CEPSNTYPE
380
     0
  9
$PSTYLEMODE
290
     1
  9
$FINGERPRINTGUID
  2
{76f17262-7438-b466-7566-796262627575}
  9
$VERSIONGUID
  2
{FAEB1C32-E019-11D5-929B-00C0DF256EC4}
  9
$EXTNAMES
290
     1
  9
$PSVPSCALE
 40
0.0
  9
$OLESTARTUP
290
     0
  9
$SORTENTS
280
   127
  9
$INDEXCTL
280
     0
  9
$HIDETEXT
280
     1
  9
$XCLIPFRAME
280
     2
  9
$HALOGAP
280
     0
  9
$OBSCOLOR
 70
   257
  9
$OBSLTYPE
280
     0
  9
$INTERSECTIONDISPLAY
280
     0
  9
$INTERSECTIONCOLOR
 70
   257
  9
$DIMASSOC
280
     2
  9
$PROJECTNAME
  1

  9
$CAMERADISPLAY
290
     0
  9
$LENSLENGTH
 40
50.0
  9
$CAMERAHEIGHT
 40
0.0
  9
$STEPSPERSEC
 40
2.0
  9
$STEPSIZE
 40
6.0
  9
$3DDWFPREC
 40
2.0
  9
$PSOLWIDTH
 40
5.0
  9
$PSOLHEIGHT
 40
80.0
  9
$LOFTANG1
 40
1.570796326794897
  9
$LOFTANG2
 40
1.570796326794897
  9
$LOFTMAG1
 40
0.0
  9
$LOFTMAG2
 40
0.0
  9
$LOFTPARAM
 70
     7
  9
$LOFTNORMALS
280
     1
  9
$LATITUDE
 40
37.795
  9
$LONGITUDE
 40
-122.394
  9
$NORTHDIRECTION
 40
0.0
  9
$TIMEZONE
 70
 -8000
  9
$LIGHTGLYPHDISPLAY
280
     1
  9
$TILEMODELIGHTSYNCH
280
     1
  9
$CMATERIAL
347
44
  9
$SOLIDHIST
280
     0
  9
$SHOWHIST
280
     1
  9
$DWFFRAME
280
     2
  9
$DGNFRAME
280
     2
  9
$REALWORLDSCALE
290
     1
  9
$INTERFERECOLOR
 62
   256
  9
$CSHADOW
280
     0
  9
$SHADOWPLANELOCATION
 40
0.0
  0
ENDSEC
  0
SECTION
  2
CLASSES
  0
CLASS
  1
ACDBDICTIONARYWDFLT
  2
AcDbDictionaryWithDefault
  3
ObjectDBX Classes
 90
        0
 91
        3
280
     0
281
     0
  0
CLASS
  1
VISUALSTYLE
  2
AcDbVisualStyle
  3
ObjectDBX Classes
 90
     4095
 91
        3
280
     0
281
     0
  0
CLASS
  1
MATERIAL
  2
AcDbMaterial
  3
ObjectDBX Classes
 90
     1153
 91
        3
280
     0
281
     0
  0
CLASS
  1
SCALE
  2
AcDbScale
  3
ObjectDBX Classes
 90
     1153
 91
        3
280
     0
281
     0
  0
CLASS
  1
TABLESTYLE
  2
AcDbTableStyle
  3
ObjectDBX Classes
 90
     4095
 91
        3
280
     0
281
     0
  0
CLASS
  1
MLEADERSTYLE
  2
AcDbMLeaderStyle
  3
ACDB_MLEADERSTYLE_CLASS
 90
     4095
 91
        3
280
     0
281
     0
  0
CLASS
  1
SUN
  2
AcDbSun
  3
SCENEOE
 90
     1153
 91
        3
280
     0
281
     0
  0
CLASS
  1
DICTIONARYVAR
  2
AcDbDictionaryVar
  3
ObjectDBX Classes
 90
        0
 91
        3
280
     0
281
     0
  0
CLASS
  1
CELLSTYLEMAP
  2
AcDbCellStyleMap
  3
ObjectDBX Classes
 90
     1152
 91
        3
280
     0
281
     0
  0
ENDSEC
  0
SECTION
  2
TABLES
  0
TABLE
  2
VPORT
  5
8
330
0
100
AcDbSymbolTable
 70
     1
  0
VPORT
  5
29
330
8
100
AcDbSymbolTableRecord
100
AcDbViewportTableRecord
  2
*Active
 70
     0
 10
0.0
 20
0.0
 11
1.0
 21
1.0
 12
215.5231159538457
 22
142.3665949904808
 13
0.0
 23
0.0
 14
10.0
 24
10.0
 15
10.0
 25
10.0
 16
0.0
 26
0.0
 36
1.0
 17
0.0
 27
0.0
 37
0.0
 40
366.2542178680185
 41
1.952890792291221
 42
50.0
 43
0.0
 44
0.0
 50
0.0
 51
0.0
 71
     0
 72
   100
 73
     1
 74
     3
 75
     0
 76
     0
 77
     0
 78
     0
281
     0
 65
     1
110
0.0
120
0.0
130
0.0
111
1.0
121
0.0
131
0.0
112
0.0
122
1.0
132
0.0
 79
     0
146
0.0
348
2F
 60
     3
 61
     5
292
     1
282
     1
141
0.0
142
0.0
 63
   250
361
6D
  0
ENDTAB
  0
TABLE
  2
LTYPE
  5
5
330
0
100
AcDbSymbolTable
 70
     7
  0
LTYPE
  5
14
330
5
100
AcDbSymbolTableRecord
100
AcDbLinetypeTableRecord
  2
ByBlock
 70
     0
  3

 72
    65
 73
     0
 40
0.0
  0
LTYPE
  5
15
330
5
100
AcDbSymbolTableRecord
100
AcDbLinetypeTableRecord
  2
ByLayer
 70
     0
  3

 72
    65
 73
     0
 40
0.0
  0
LTYPE
  5
16
330
5
100
AcDbSymbolTableRecord
100
AcDbLinetypeTableRecord
  2
Continuous
 70
     0
  3
Solid line
 72
    65
 73
     0
 40
0.0
  0
LTYPE
  5
6E
330
5
100
AcDbSymbolTableRecord
100
AcDbLinetypeTableRecord
  2
DOT
 70
     0
  3
Dot . . . . . . . . . . . . . . . . . . . . . . . .
 72
    65
 73
     2
 40
2.032
 49
1.016
 74
     0
 49
-1.016
 74
     0
  0
LTYPE
  5
6F
330
5
100
AcDbSymbolTableRecord
100
AcDbLinetypeTableRecord
  2
CENTER
 70
     0
  3
Center ____ _ ____ _ ____ _ ____ _ ____ _ ____
 72
    65
 73
     4
 40
13.208
 49
8.128
 74
     0
 49
-1.524
 74
     0
 49
2.032
 74
     0
 49
-1.524
 74
     0
  0
LTYPE
  5
70
330
5
100
AcDbSymbolTableRecord
100
AcDbLinetypeTableRecord
  2
HIDDEN2
 70
     0
  3
Hidden (.5x) _ _ _ _ _ _ _ _ _ _ _ _ _ _ _ _ _
 72
    65
 73
     2
 40
4.762499999999999
 49
3.175
 74
     0
 49
-1.5875
 74
     0
  0
LTYPE
  5
71
330
5
100
AcDbSymbolTableRecord
100
AcDbLinetypeTableRecord
  2
DASHED
 70
     0
  3
Dashed __ __ __ __ __ __ __ __ __ __ __ __ __ _
 72
    65
 73
     2
 40
9.652
 49
8.128
 74
     0
 49
-1.524
 74
     0
  0
LTYPE
  5
72
330
5
100
AcDbSymbolTableRecord
100
AcDbLinetypeTableRecord
  2
PHANTOM2
 70
     0
  3
Phantom (.5x) ___ _ _ ___ _ _ ___ _ _ ___ _ _
 72
    65
 73
     6
 40
14.732
 49
8.128
 74
     0
 49
-1.524
 74
     0
 49
1.016
 74
     0
 49
-1.524
 74
     0
 49
1.016
 74
     0
 49
-1.524
 74
     0
  0
LTYPE
  5
73
330
5
100
AcDbSymbolTableRecord
100
AcDbLinetypeTableRecord
  2
DASHDOT
 70
     0
  3
Dash dot __ . __ . __ . __ . __ . __ . __ . __
 72
    65
 73
     4
 40
11.176
 49
8.128
 74
     0
 49
-1.524
 74
     0
 49
0.0
 74
     0
 49
-1.524
 74
     0
  0
ENDTAB
  0
TABLE
  2
LAYER
  5
2
330
0
100
AcDbSymbolTable
 70
     7
  0
LAYER
  5
10
330
2
100
AcDbSymbolTableRecord
100
AcDbLayerTableRecord
  2
0
 70
     0
 62
     7
  6
Continuous
370
    -3
390
F
347
46
348
0
  0
LAYER
  5
74
330
2
100
AcDbSymbolTableRecord
100
AcDbLayerTableRecord
  2
Outline
 70
     0
 62
     7
  6
Continuous
370
    -3
390
F
347
46
348
0
  0
LAYER
  5
75
330
2
100
AcDbSymbolTableRecord
100
AcDbLayerTableRecord
  2
Axis
 70
     0
 62
     5
  6
DASHDOT
370
    -3
390
F
347
46
348
0
  0
LAYER
  5
76
330
2
100
AcDbSymbolTableRecord
100
AcDbLayerTableRecord
  2
Dimension
 70
     0
 62
     7
  6
Continuous
370
    -3
390
F
347
46
348
0
  0
LAYER
  5
77
330
2
100
AcDbSymbolTableRecord
100
AcDbLayerTableRecord
  2
Hatch
 70
     0
 62
     5
  6
Continuous
370
    -3
390
F
347
46
348
0
  0
LAYER
  5
78
330
2
100
AcDbSymbolTableRecord
100
AcDbLayerTableRecord
  2
Auxiliary
 70
     0
 62
     1
  6
DOT
370
    -3
390
F
347
46
348
0
  0
LAYER
  5
79
330
2
100
AcDbSymbolTableRecord
100
AcDbLayerTableRecord
  2
Invisible
 70
     0
 62
     6
  6
DOT
370
    -3
390
F
347
46
348
0
  0
ENDTAB
  0
TABLE
  2
STYLE
  5
3
330
0
100
AcDbSymbolTable
 70
    33
  0
STYLE
  5
11
330
3
100
AcDbSymbolTableRecord
100
AcDbTextStyleTableRecord
  2
Standard
 70
     0
 40
0.0
 41
1.0
 50
0.0
 71
     0
 42
2.5
  3
txt
  4

  0
STYLE
  5
7A
330
3
100
AcDbSymbolTableRecord
100
AcDbTextStyleTableRecord
  2
VCDSTYLE01
 70
     0
 40
0.0
 41
1.0
 50
0.0
 71
     0
 42
2.5
  3
txt
  4

  0
STYLE
  5
7B
330
3
100
AcDbSymbolTableRecord
100
AcDbTextStyleTableRecord
  2
VCDSTYLE02
 70
     0
 40
0.0
 41
1.0
 50
0.0
 71
     0
 42
2.5
  3
txt
  4

  0
STYLE
  5
7C
330
3
100
AcDbSymbolTableRecord
100
AcDbTextStyleTableRecord
  2
VCDSTYLE03
 70
     0
 40
0.0
 41
1.0
 50
0.0
 71
     0
 42
2.5
  3
txt
  4

  0
STYLE
  5
7D
330
3
100
AcDbSymbolTableRecord
100
AcDbTextStyleTableRecord
  2
VCDSTYLE04
 70
     0
 40
0.0
 41
1.0
 50
0.0
 71
     0
 42
2.5
  3
txt
  4

  0
STYLE
  5
7E
330
3
100
AcDbSymbolTableRecord
100
AcDbTextStyleTableRecord
  2
VCDSTYLE05
 70
     0
 40
0.0
 41
1.0
 50
0.0
 71
     0
 42
2.5
  3
txt
  4

  0
STYLE
  5
7F
330
3
100
AcDbSymbolTableRecord
100
AcDbTextStyleTableRecord
  2
VCDSTYLE06
 70
     0
 40
0.0
 41
1.0
 50
0.0
 71
     0
 42
2.5
  3
txt
  4

  0
STYLE
  5
80
330
3
100
AcDbSymbolTableRecord
100
AcDbTextStyleTableRecord
  2
VCDSTYLE07
 70
     0
 40
0.0
 41
1.0
 50
0.0
 71
     0
 42
2.5
  3
txt
  4

  0
STYLE
  5
81
330
3
100
AcDbSymbolTableRecord
100
AcDbTextStyleTableRecord
  2
VCDSTYLE08
 70
     0
 40
0.0
 41
1.0
 50
0.0
 71
     0
 42
2.5
  3
txt
  4

  0
STYLE
  5
82
330
3
100
AcDbSymbolTableRecord
100
AcDbTextStyleTableRecord
  2
VCDSTYLE09
 70
     0
 40
0.0
 41
1.0
 50
0.0
 71
     0
 42
2.5
  3
txt
  4

  0
STYLE
  5
83
330
3
100
AcDbSymbolTableRecord
100
AcDbTextStyleTableRecord
  2
VCDSTYLE10
 70
     0
 40
0.0
 41
1.0
 50
0.0
 71
     0
 42
2.5
  3
Sans Serif.ttf
  4

1001
ACAD
1000
Sans Serif
1071
        0
  0
STYLE
  5
84
330
3
100
AcDbSymbolTableRecord
100
AcDbTextStyleTableRecord
  2
VCDSTYLE11
 70
     0
 40
0.0
 41
1.0
 50
0.0
 71
     0
 42
2.5
  3
Sans Serif.ttf
  4

1001
ACAD
1000
Sans Serif
1071
 16777216
  0
STYLE
  5
85
330
3
100
AcDbSymbolTableRecord
100
AcDbTextStyleTableRecord
  2
VCDSTYLE12
 70
     0
 40
0.0
 41
1.0
 50
0.0
 71
     0
 42
2.5
  3
DejaVu Sans.ttf
  4

1001
ACAD
1000
DejaVu Sans
1071
        0
  0
STYLE
  5
86
330
3
100
AcDbSymbolTableRecord
100
AcDbTextStyleTableRecord
  2
VCDSTYLE13
 70
     0
 40
0.0
 41
1.0
 50
0.0
 71
     0
 42
2.5
  3
DejaVu Sans.ttf
  4

1001
ACAD
1000
DejaVu Sans
1071
 16777216
  0
STYLE
  5
87
330
3
100
AcDbSymbolTableRecord
100
AcDbTextStyleTableRecord
  2
VCDSTYLE14
 70
     0
 40
0.0
 41
1.0
 50
0.0
 71
     0
 42
2.5
  3
DejaVu Sans Mono.ttf
  4

1001
ACAD
1000
DejaVu Sans Mono
1071
        0
  0
STYLE
  5
88
330
3
100
AcDbSymbolTableRecord
100
AcDbTextStyleTableRecord
  2
VCDSTYLE15
 70
     0
 40
0.0
 41
1.0
 50
0.0
 71
     0
 42
2.5
  3
DejaVu Sans Mono.ttf
  4

1001
ACAD
1000
DejaVu Sans Mono
1071
 16777216
  0
STYLE
  5
89
330
3
100
AcDbSymbolTableRecord
100
AcDbTextStyleTableRecord
  2
VCDSTYLE16
 70
     0
 40
0.0
 41
1.0
 50
0.0
 71
     0
 42
2.5
  3
Sans Serif.ttf
  4

1001
ACAD
1000
Sans Serif
1071
        0
  0
STYLE
  5
8A
330
3
100
AcDbSymbolTableRecord
100
AcDbTextStyleTableRecord
  2
VCDSTYLE17
 70
     0
 40
0.0
 41
1.0
 50
0.0
 71
     0
 42
2.5
  3
Sans Serif.ttf
  4

1001
ACAD
1000
Sans Serif
1071
 16777216
  0
STYLE
  5
8B
330
3
100
AcDbSymbolTableRecord
100
AcDbTextStyleTableRecord
  2
VCDSTYLE18
 70
     0
 40
0.0
 41
1.0
 50
0.0
 71
     0
 42
2.5
  3
Bitstream Vera Sans.ttf
  4

1001
ACAD
1000
Bitstream Vera Sans
1071
        0
  0
STYLE
  5
8C
330
3
100
AcDbSymbolTableRecord
100
AcDbTextStyleTableRecord
  2
VCDSTYLE19
 70
     0
 40
0.0
 41
1.0
 50
0.0
 71
     0
 42
2.5
  3
Bitstream Vera Sans.ttf
  4

1001
ACAD
1000
Bitstream Vera Sans
1071
 16777216
  0
STYLE
  5
8D
330
3
100
AcDbSymbolTableRecord
100
AcDbTextStyleTableRecord
  2
VCDSTYLE20
 70
     0
 40
0.0
 41
1.0
 50
0.0
 71
     0
 42
2.5
  3
Bitstream Vera Sans Mono.ttf
  4

1001
ACAD
1000
Bitstream Vera Sans Mono
1071
        0
  0
STYLE
  5
8E
330
3
100
AcDbSymbolTableRecord
100
AcDbTextStyleTableRecord
  2
VCDSTYLE21
 70
     0
 40
0.0
 41
1.0
 50
0.0
 71
     0
 42
2.5
  3
Bitstream Vera Sans Mono.ttf
  4

1001
ACAD
1000
Bitstream Vera Sans Mono
1071
 16777216
  0
STYLE
  5
8F
330
3
100
AcDbSymbolTableRecord
100
AcDbTextStyleTableRecord
  2
VCDSTYLE22
 70
     0
 40
0.0
 41
1.0
 50
0.0
 71
     0
 42
2.5
  3
Monospace.ttf
  4

1001
ACAD
1000
Monospace
1071
        0
  0
STYLE
  5
90
330
3
100
AcDbSymbolTableRecord
100
AcDbTextStyleTableRecord
  2
VCDSTYLE23
 70
     0
 40
0.0
 41
1.0
 50
0.0
 71
     0
 42
2.5
  3
Monospace.ttf
  4

1001
ACAD
1000
Monospace
1071
 16777216
  0
STYLE
  5
91
330
3
100
AcDbSymbolTableRecord
100
AcDbTextStyleTableRecord
  2
VCDSTYLE24
 70
     0
 40
0.0
 41
1.0
 50
0.0
 71
     0
 42
2.5
  3
URW Gothic L.ttf
  4

1001
ACAD
1000
URW Gothic L
1071
        0
  0
STYLE
  5
92
330
3
100
AcDbSymbolTableRecord
100
AcDbTextStyleTableRecord
  2
VCDSTYLE25
 70
     0
 40
0.0
 41
1.0
 50
0.0
 71
     0
 42
2.5
  3
URW Gothic L.ttf
  4

1001
ACAD
1000
URW Gothic L
1071
 16777216
  0
STYLE
  5
93
330
3
100
AcDbSymbolTableRecord
100
AcDbTextStyleTableRecord
  2
VCDSTYLE26
 70
     0
 40
0.0
 41
1.0
 50
0.0
 71
     0
 42
2.5
  3
Waree.ttf
  4

1001
ACAD
1000
Waree
1071
        0
  0
STYLE
  5
94
330
3
100
AcDbSymbolTableRecord
100
AcDbTextStyleTableRecord
  2
VCDSTYLE27
 70
     0
 40
0.0
 41
1.0
 50
0.0
 71
     0
 42
2.5
  3
Waree.ttf
  4

1001
ACAD
1000
Waree
1071
 16777216
  0
STYLE
  5
95
330
3
100
AcDbSymbolTableRecord
100
AcDbTextStyleTableRecord
  2
VCDSTYLE28
 70
     0
 40
0.0
 41
1.0
 50
0.0
 71
     0
 42
2.5
  3
Nimbus Mono L.ttf
  4

1001
ACAD
1000
Nimbus Mono L
1071
        0
  0
STYLE
  5
96
330
3
100
AcDbSymbolTableRecord
100
AcDbTextStyleTableRecord
  2
VCDSTYLE29
 70
     0
 40
0.0
 41
1.0
 50
0.0
 71
     0
 42
2.5
  3
Nimbus Sans L.ttf
  4

1001
ACAD
1000
Nimbus Sans L
1071
        0
  0
STYLE
  5
97
330
3
100
AcDbSymbolTableRecord
100
AcDbTextStyleTableRecord
  2
VCDSTYLE30
 70
     0
 40
0.0
 41
1.0
 50
0.0
 71
     0
 42
2.5
  3
Nimbus Sans L.ttf
  4

1001
ACAD
1000
Nimbus Sans L
1071
 16777216
  0
STYLE
  5
98
330
3
100
AcDbSymbolTableRecord
100
AcDbTextStyleTableRecord
  2
VCDSTYLE31
 70
     0
 40
0.0
 41
1.0
 50
0.0
 71
     0
 42
2.5
  3
Serif.ttf
  4

1001
ACAD
1000
Serif
1071
        0
  0
STYLE
  5
99
330
3
100
AcDbSymbolTableRecord
100
AcDbTextStyleTableRecord
  2
VCDSTYLE32
 70
     0
 40
0.0
 41
1.0
 50
0.0
 71
     0
 42
2.5
  3
Serif.ttf
  4

1001
ACAD
1000
Serif
1071
 16777216
  0
ENDTAB
  0
TABLE
  2
VIEW
  5
6
330
0
100
AcDbSymbolTable
 70
     0
  0
ENDTAB
  0
TABLE
  2
UCS
  5
7
330
0
100
AcDbSymbolTable
 70
     0
  0
ENDTAB
  0
TABLE
  2
APPID
  5
9
330
0
100
AcDbSymbolTable
 70
     1
  0
APPID
  5
12
330
9
100
AcDbSymbolTableRecord
100
AcDbRegAppTableRecord
  2
ACAD
 70
     0
  0
ENDTAB
  0
TABLE
  2
DIMSTYLE
  5
A
330
0
100
AcDbSymbolTable
 70
     1
100
AcDbDimStyleTable
  0
DIMSTYLE
105
27
330
A
100
AcDbSymbolTableRecord
100
AcDbDimStyleTableRecord
  2
ISO-25
 70
     0
 41
2.5
 42
0.625
 43
3.75
 44
1.25
 73
     0
 74
     0
 77
     1
 78
     8
140
2.5
141
2.5
143
0.03937007874016
147
0.625
171
     3
172
     1
178
     0
271
     2
272
     2
274
     3
278
    44
283
     0
284
     8
340
11
  0
ENDTAB
  0
TABLE
  2
BLOCK_RECORD
  5
1
330
0
100
AcDbSymbolTable
 70
     1
  0
BLOCK_RECORD
  5
1F
330
1
100
AcDbSymbolTableRecord
100
AcDbBlockTableRecord
  2
*Model_Space
340
22
 70
     0
280
     1
281
     0
  0
BLOCK_RECORD
  5
1B
330
1
100
AcDbSymbolTableRecord
100
AcDbBlockTableRecord
  2
*Paper_Space
340
1E
 70
     0
280
     1
281
     0
  0
BLOCK_RECORD
  5
23
330
1
100
AcDbSymbolTableRecord
100
AcDbBlockTableRecord
  2
*Paper_Space0
340
26
 70
     0
280
     1
281
     0
  0
ENDTAB
  0
ENDSEC
  0
SECTION
  2
BLOCKS
  0
BLOCK
  5
20
330
1F
100
AcDbEntity
  8
0
100
AcDbBlockBegin
  2
*Model_Space
 70
     0
 10
0.0
 20
0.0
 30
0.0
  3
*Model_Space
  1

  0
ENDBLK
  5
21
330
1F
100
AcDbEntity
  8
0
100
AcDbBlockEnd
  0
BLOCK
  5
1C
330
1B
100
AcDbEntity
 67
     1
  8
0
100
AcDbBlockBegin
  2
*Paper_Space
 70
     0
 10
0.0
 20
0.0
 30
0.0
  3
*Paper_Space
  1

  0
ENDBLK
  5
1D
330
1B
100
AcDbEntity
 67
     1
  8
0
100
AcDbBlockEnd
  0
BLOCK
  5
24
330
23
100
AcDbEntity
  8
0
100
AcDbBlockBegin
  2
*Paper_Space0
 70
     0
 10
0.0
 20
0.0
 30
0.0
  3
*Paper_Space0
  1

  0
ENDBLK
  5
25
330
23
100
AcDbEntity
  8
0
100
AcDbBlockEnd
  0
ENDSEC
  0
SECTION
  2
ENTITIES
  0
LWPOLYLINE
  5
9A
330
1F
100
AcDbEntity
  8
0
 62
     1
100
AcDbPolyline
 90
       58
 70
     0
 43
0.0
 10
412.193477069904
 20
194.717111908236
 10
412.2402913588237
 20
194.8138256323724
 10
412.2834774947485
 20
194.9119386833402
 10
412.3231008048199
 20
195.0115462979848
 10
412.3591187113384
 20
195.1125154108328
 10
412.3914886366045
 20
195.2147129564111
 10
412.4201680029188
 20
195.318005869246
 10
412.4451142325814
 20
195.4222610838645
 10
412.4662847478932
 20
195.527345534793
 10
412.4836369711543
 20
195.6331261565582
 10
412.4971248243701
 20
195.7393704801125
 10
412.5067590121328
 20
195.846036342344
 10
412.5125395309954
 20
195.9529832317926
 10
412.5144663775104
 20
196.0600706369987
 10
412.5125395482312
 20
196.1671580465022
 10
412.5067590397103
 20
196.2741049488432
 10
412.4971248485009
 20
196.3807708325618
 10
412.4836369711555
 20
196.4870151861979
 10
412.4662846995573
 20
196.5927958456107
 10
412.4451141220595
 20
196.6978803363523
 10
412.4201678301916
 20
196.8021355864884
 10
412.3914884154827
 20
196.9054285240845
 10
412.3591184694621
 20
197.0076260772065
 10
412.3231005836592
 20
197.10859517392
 10
412.2834773496031
 20
197.2082027422905
 10
412.2402913588234
 20
197.3063157103838
 10
412.1934772884065
 20
197.4030293135504
 10
412.1432065401807
 20
197.4979934187298
 10
412.0895594236301
 20
197.5910939952278
 10
412.0326162482405
 20
197.6822170123504
 10
411.9724573234975
 20
197.771248439404
 10
411.9091629588867
 20
197.8580742456949
 10
411.8428134638937
 20
197.9425804005295
 10
411.7734891480043
 20
198.024652873214
 10
411.7010660595862
 20
198.1044034303014
 10
411.6258352708277
 20
198.1815073494734
 10
411.5479001267483
 20
198.2558803414711
 10
411.4673639723694
 20
198.3274381170382
 10
411.384330152712
 20
198.3960963869181
 10
411.2989020127974
 20
198.4617708618543
 10
411.2111828976466
 20
198.5243772525903
 10
411.1212761522837
 20
198.5838312698717
 10
411.0295678831086
 20
198.6398902154223
 10
410.9359242689007
 20
198.6926726780193
 10
410.8404815827499
 20
198.7421193922411
 10
410.743376097746
 20
198.788171092666
 10
410.6447440869789
 20
198.8307685138727
 10
410.5447218235382
 20
198.8698523904396
 10
410.4434454811297
 20
198.9053636755149
 10
410.3410444145801
 20
198.937258318647
 10
410.2362293962133
 20
198.9658745030162
 10
410.1305025305786
 20
198.9907370520854
 10
410.0239858917527
 20
199.0118278338098
 10
409.9168015538123
 20
199.0291287161444
 10
409.8088682762939
 20
199.0426433729284
 10
409.7005100818089
 20
199.0523174075555
 10
409.5918497354022
 20
199.0581325853492
 10
409.483010002118
 20
199.0600706716331
  0
LWPOLYLINE
  5
9B
330
1F
100
AcDbEntity
  8
0
 62
     1
100
AcDbPolyline
 90
      120
 70
     0
 43
0.0
 10
409.4830083731314
 20
199.0600706716778
 10
409.3747466748578
 20
199.0581517029427
 10
409.2666622107332
 20
199.0523976273195
 10
409.1588755667714
 20
199.042826102248
 10
409.051507328986
 20
199.0294547851684
 10
408.9448760963533
 20
199.0123367184004
 10
408.8389017686634
 20
198.9914681245524
 10
408.7337042606981
 20
198.9668665627757
 10
408.6294034872398
 20
198.9385495922216
 10
408.5264107023793
 20
198.9066307702936
 10
408.4245487106259
 20
198.8710546076106
 10
408.3239489268393
 20
198.8318653913881
 10
408.2247501189013
 20
198.7891231971273
 10
408.1270911739224
 20
198.7428883563367
 10
408.0311109790135
 20
198.6932212005248
 10
407.9369484212856
 20
198.6401820611999
 10
407.8447423878479
 20
198.5838312698717
 10
407.7548335445645
 20
198.5243760678405
 10
407.6671132938239
 20
198.4617690361433
 10
407.5816847991861
 20
198.3960943613916
 10
407.4986512242106
 20
198.3274362301966
 10
407.4181157324572
 20
198.2558788291698
 10
407.3401814874859
 20
198.1815063449225
 10
407.2649516528563
 20
198.104402964066
 10
407.1925293921267
 20
198.024652873214
 10
407.1232056340766
 20
197.9425807136432
 10
407.0568564408275
 20
197.8580747269236
 10
406.9935621702213
 20
197.7712489715177
 10
406.9334031801001
 20
197.682217505888
 10
406.8764598283062
 20
197.5910943884973
 10
406.8228124726816
 20
197.4979936778078
 10
406.7725414710684
 20
197.4030294322822
 10
406.7257271813072
 20
197.3063157103838
 10
406.6825410433747
 20
197.2082026667943
 10
406.6429177305999
 20
197.1085950627318
 10
406.606899821317
 20
197.0076259610137
 10
406.57452989386
 20
196.9054284244574
 10
406.5458505265632
 20
196.8021355158803
 10
406.5209042977608
 20
196.6978802980998
 10
406.499733785787
 20
196.5927958339332
 10
406.4823815689758
 20
196.487015186198
 10
406.468893725475
 20
196.3807708232642
 10
406.4592595489909
 20
196.2741049151829
 10
406.4534790408007
 20
196.1671579822747
 10
406.4515522021823
 20
196.0600705448603
 10
406.453479034413
 20
195.9529831232608
 10
406.4592595387705
 20
195.8460362377967
 10
406.4688937165322
 20
195.7393704087889
 10
406.4823815689757
 20
195.6331261565583
 10
406.4997338037012
 20
195.5273456473676
 10
406.5209043387221
 20
195.4222613297149
 10
406.5458505905784
 20
195.3180062426409
 10
406.5745299758109
 20
195.2147134251861
 10
406.6068999109598
 20
195.1125159163913
 10
406.6429178125652
 20
195.011546755297
 10
406.6825410971677
 20
194.9119389809438
 10
406.7257271813075
 20
194.8138256323725
 10
406.7725413900888
 20
194.7171114652998
 10
406.8228122977438
 20
194.6221467103549
 10
406.8764595644896
 20
194.52904552172
 10
406.9334028505417
 20
194.4379220535764
 10
406.9935618161161
 20
194.3488904601055
 10
407.056856121428
 20
194.2620648954885
 10
407.1232054266933
 20
194.177559513907
 10
407.1925293921275
 20
194.0954884695423
 10
407.2649519607741
 20
194.0157400308468
 10
407.3401821504692
 20
193.9386385532326
 10
407.4181167300923
 20
193.8642678617481
 10
407.498652468521
 20
193.7927117814394
 10
407.5816861346332
 20
193.7240541373526
 10
407.6671144973066
 20
193.6583787545338
 10
407.754834325419
 20
193.5957694580291
 10
407.8447423878482
 20
193.5363100728846
 10
407.9369472643876
 20
193.4799530852432
 10
408.0311084921062
 20
193.4269068248439
 10
408.1270874405858
 20
193.37723299981
 10
408.2247454794069
 20
193.3309933182643
 10
408.3239439781499
 20
193.2882494883294
 10
408.4245443063952
 20
193.2490632181278
 10
408.5264079489714
 20
193.2134959345996
 10
408.629403487241
 20
193.1815917505346
 10
408.7336911326536
 20
193.1532968663633
 10
408.8388754907454
 20
193.128716664164
 10
408.9448362520646
 20
193.1078659190269
 10
409.0514531071593
 20
193.0907594060425
 10
409.1588357592365
 20
193.0773873547455
 10
409.2666354091965
 20
193.0678053019636
 10
409.3747309728122
 20
193.0620281179366
 10
409.4830013658566
 20
193.0600706729041
 10
409.5912718126043
 20
193.0619891952268
 10
409.6993562649708
 20
193.067743014018
 10
409.8071428737884
 20
193.0773144374269
 10
409.9145110585067
 20
193.0906857754106
 10
410.0211423369616
 20
193.1078039726473
 10
410.1271167019939
 20
193.1286727619992
 10
410.2323142438786
 20
193.1532745518378
 10
410.3366150528902
 20
193.1815917505346
 10
410.439607805384
 20
193.213510743194
 10
410.5414697777444
 20
193.2490870093021
 10
410.6420695551681
 20
193.2882762596846
 10
410.7412683667865
 20
193.3310184346707
 10
410.8389273224533
 20
193.3772532188719
 10
410.9349075320222
 20
193.4269202969003
 10
411.0290701053469
 20
193.4799593533676
 10
411.1212761522827
 20
193.5363100728845
 10
411.2111850045726
 20
193.5957652268667
 10
411.2989052600709
 20
193.6583722330329
 10
411.3843337560558
 20
193.7240469003767
 10
411.4673673298048
 20
193.7927050378921
 10
411.5479028185961
 20
193.8642624545727
 10
411.6258370597074
 20
193.9386349594125
 10
411.7010668904167
 20
194.0157383614051
 10
411.7734891480034
 20
194.0954884695422
 10
411.8428129043227
 20
194.1775606391851
 10
411.9091620970707
 20
194.2620666295819
 10
411.9724563680378
 20
194.3488923840286
 10
412.0326153590141
 20
194.4379238458213
 10
412.0895587117905
 20
194.5290469582561
 10
412.1432060681569
 20
194.6221476646289
 10
412.193477069904
 20
194.717111908236
  0
LWPOLYLINE
  5
9C
330
1F
100
AcDbEntity
  8
0
 62
     1
100
AcDbPolyline
 90
       56
 70
     0
 43
0.0
 10
332.9661169774967
 20
194.9119386379805
 10
333.0057402924579
 20
195.0115462499878
 10
333.0417582035759
 20
195.1125153603551
 10
333.0741281322258
 20
195.2147129041083
 10
333.1028074997828
 20
195.318005816273
 10
333.1277537276221
 20
195.4222610318749
 10
333.1489242371188
 20
195.5273454859398
 10
333.1662764496479
 20
195.6331261134934
 10
333.1797642870414
 20
195.7393704455814
 10
333.1893984566082
 20
195.8460363176268
 10
333.1951789583483
 20
195.9529832163104
 10
333.1971057922617
 20
196.0600706283133
 10
333.1951789583483
 20
196.1671580403161
 10
333.1893984566082
 20
196.2741049389997
 10
333.1797642870414
 20
196.3807708110451
 10
333.1662764496479
 20
196.4870151431331
 10
333.1489242371187
 20
196.5927957706866
 10
333.1277537276221
 20
196.6978802247515
 10
333.1028074997829
 20
196.8021354403535
 10
333.0741281322259
 20
196.9054283525182
 10
333.041758203576
 20
197.0076258962713
 10
333.005740292458
 20
197.1085950066387
 10
332.9661169774968
 20
197.208202618646
 10
332.9229308373174
 20
197.3063156673189
 10
332.8761165455062
 20
197.4030293898958
 10
332.825845542193
 20
197.4979936326581
 10
332.7721981853363
 20
197.5910943387664
 10
332.7152548328959
 20
197.6822174513822
 10
332.6550958428319
 20
197.771248913667
 10
332.5918015731041
 20
197.8580746687821
 10
332.5254523816726
 20
197.942580659889
 10
332.4561286264973
 20
198.0246528301491
 10
332.383706369686
 20
198.1044029387048
 10
332.3084765393937
 20
198.1815063409226
 10
332.2305422984093
 20
198.2558788458312
 10
332.1500068095235
 20
198.3274362624611
 10
332.0669732355268
 20
198.396094399843
 10
331.9815447392097
 20
198.4617690670075
 10
331.8938244833627
 20
198.5243760729852
 10
331.8039156307764
 20
198.5838312268068
 10
331.7117095836497
 20
198.6401819462197
 10
331.6175470102332
 20
198.6932210026363
 10
331.5215668006492
 20
198.7428880806555
 10
331.4239078450215
 20
198.789122864877
 10
331.3247090334738
 20
198.8318650399009
 10
331.2241092561299
 20
198.871054290327
 10
331.1222472838359
 20
198.9066305564725
 10
331.0192545313834
 20
198.9385495491568
 10
330.9149537223897
 20
198.9668667478678
 10
330.8097561805068
 20
198.9914685377117
 10
330.7037818154651
 20
199.0123373270625
 10
330.5971505369953
 20
199.0294555242941
 10
330.4897823522665
 20
199.0428268622704
 10
330.3819957434438
 20
199.0523982856732
 10
330.2739112910826
 20
199.0581521044615
 10
330.1656495757385
 20
199.0600706285943
  0
LWPOLYLINE
  5
9D
330
1F
100
AcDbEntity
  8
0
 62
     1
100
AcDbPolyline
 90
      120
 70
     0
 43
0.0
 10
330.1656471850461
 20
199.0600706288087
 10
330.0573562530028
 20
199.0581253881963
 10
329.9492720411712
 20
199.0523647968276
 10
329.8415051990213
 20
199.0428005658478
 10
329.7341663760227
 20
199.0294444064018
 10
329.6275552327344
 20
199.0123417858038
 10
329.5215909090176
 20
198.9914840034641
 10
329.4163834662307
 20
198.966882708282
 10
329.3120429657323
 20
198.9385495491568
 10
329.2089751251161
 20
198.9065936469912
 10
329.1069915159858
 20
198.8709540663644
 10
329.0062476520804
 20
198.8316875762692
 10
328.9069262988642
 20
198.7888775051714
 10
328.8092106635199
 20
198.7426076120339
 10
328.7132839532298
 20
198.6929616558197
 10
328.6193109093131
 20
198.6400177458685
 10
328.527381866342
 20
198.5838312268069
 10
328.4372433025422
 20
198.5242283203516
 10
328.3493082541538
 20
198.4614591327809
 10
328.253620640521
 20
198.3875364364356
 10
328.1608897069135
 20
198.3097891640285
 10
328.0712655002258
 20
198.2283371959209
 10
327.9849161956037
 20
198.1433189011432
 10
327.9020100352995
 20
198.0548727171661
 10
327.805829570189
 20
197.9425989305135
 10
327.7394708279777
 20
197.8581033765493
 10
327.6761733655441
 20
197.7712809491719
 10
327.6160160803097
 20
197.6822473614164
 10
327.5590778696966
 20
197.5911183263181
 10
327.5054376311267
 20
197.4980095569122
 10
327.4551742620215
 20
197.4030367662338
 10
327.4083666598016
 20
197.3063156673189
 10
327.3651851049552
 20
197.2081977175677
 10
327.3255643502755
 20
197.1085875387589
 10
327.2895473318656
 20
197.0076177288822
 10
327.2571769858286
 20
196.9054208859279
 10
327.2284962482674
 20
196.8021296078858
 10
327.2035480552851
 20
196.697876492746
 10
327.1823753429847
 20
196.5927941384985
 10
327.1650210474693
 20
196.4870151431331
 10
327.1515315456796
 20
196.3807716258259
 10
327.1418961872585
 20
196.2741058701777
 10
327.1361149722057
 20
196.1671586223023
 10
327.1341879005215
 20
196.0600706283133
 10
327.1361149722057
 20
195.9529826343243
 10
327.1418961872583
 20
195.8460353864488
 10
327.1515315456795
 20
195.7393696308007
 10
327.1650210474691
 20
195.6331261134934
 10
327.1823753429845
 20
195.5273471181281
 10
327.2035480552848
 20
195.4222647638805
 10
327.228496248267
 20
195.3180116487407
 10
327.2571769858282
 20
195.2147203706986
 10
327.2895473318652
 20
195.1125235277443
 10
327.3255643502751
 20
195.0115537178677
 10
327.3651851049548
 20
194.9119435390588
 10
327.4083666598012
 20
194.8138255893076
 10
327.4551742620212
 20
194.7171044903928
 10
327.5054376311263
 20
194.6221316997144
 10
327.5590778696964
 20
194.5290229303084
 10
327.6160160803095
 20
194.4378938952102
 10
327.6761733655438
 20
194.3488603074547
 10
327.7394708279776
 20
194.2620378800772
 10
327.8058295701889
 20
194.1775423261131
 10
327.8751688706208
 20
194.0954884264775
 10
327.9568899289854
 20
194.0059303766497
 10
328.0421102124185
 20
193.9197540701977
 10
328.1306614786679
 20
193.8370979445921
 10
328.2223754854815
 20
193.7581004373039
 10
328.3170907994648
 20
193.6828930415757
 10
328.4040055470151
 20
193.6190830271299
 10
328.4933262752677
 20
193.5582868872544
 10
328.6193109093127
 20
193.4801235107578
 10
328.7132839532297
 20
193.4271796008066
 10
328.8092106635202
 20
193.3775336445924
 10
328.906926298865
 20
193.3312637514549
 10
329.0062476520815
 20
193.2884536803572
 10
329.1069915159874
 20
193.2491871902621
 10
329.208975125118
 20
193.2135476096354
 10
329.3120429657346
 20
193.1815917074697
 10
329.416383466233
 20
193.1532585483446
 10
329.5215909090197
 20
193.1286572531625
 10
329.6275552327363
 20
193.1077994708227
 10
329.7341663760244
 20
193.0906968502247
 10
329.8415051990225
 20
193.0773406907788
 10
329.949272041172
 20
193.0677764597989
 10
330.0573562530031
 20
193.0620158684302
 10
330.1656471850461
 20
193.0600706278178
 10
330.2739112910826
 20
193.061989152165
 10
330.3819957434438
 20
193.0677429709533
 10
330.4897823522664
 20
193.0773143943561
 10
330.5971505369952
 20
193.0906857323324
 10
330.7037818154648
 20
193.107803929564
 10
330.8097561805064
 20
193.1286727189148
 10
330.9149537223892
 20
193.1532745087588
 10
331.0192545313828
 20
193.1815917074697
 10
331.1222472838352
 20
193.213510700154
 10
331.2241092561292
 20
193.2490869662995
 10
331.324709033473
 20
193.2882762167256
 10
331.4239078450206
 20
193.3310183917496
 10
331.5215668006483
 20
193.3772531759711
 10
331.6175470102322
 20
193.4269202539902
 10
331.7117095836487
 20
193.4799593104067
 10
331.8039156307754
 20
193.5363100298197
 10
331.8938244833617
 20
193.5957651836413
 10
331.9815447392087
 20
193.6583721896191
 10
332.0669732355258
 20
193.7240468567835
 10
332.1500068095227
 20
193.7927049941654
 10
332.2305422984085
 20
193.8642624107953
 10
332.3084765393929
 20
193.9386349157039
 10
332.3837063696853
 20
194.0157383179217
 10
332.4561286264967
 20
194.0954884264774
 10
332.525452381672
 20
194.1775605967375
 10
332.5918015731036
 20
194.2620665878444
 10
332.6550958428314
 20
194.3488923429595
 10
332.7152548328955
 20
194.4379238052442
 10
332.7721981853359
 20
194.5290469178601
 10
332.8258455421927
 20
194.6221476239684
 10
332.876116545506
 20
194.7171118667307
 10
332.9229308373172
 20
194.8138255893076
 10
332.9661169774967
 20
194.9119386379805
  0
LWPOLYLINE
  5
9E
330
1F
100
AcDbEntity
  8
0
 62
     1
100
AcDbPolyline
 90
       73
 70
     0
 43
0.0
 10
414.7728549691356
 20
186.5956045705019
 10
414.6240232349895
 20
186.481209902044
 10
414.4750582252224
 20
186.3669866842718
 10
414.32595933672
 20
186.252936316203
 10
414.1767259663679
 20
186.1390601968557
 10
414.0273575110523
 20
186.0253597252475
 10
413.8778533676586
 20
185.9118363003964
 10
413.7282129330729
 20
185.7984913213202
 10
413.5784356041808
 20
185.6853261870366
 10
413.3780026508214
 20
185.5343335613116
 10
413.1773225545729
 20
185.3836681526823
 10
412.9763938747428
 20
185.2333333030605
 10
412.7752151706387
 20
185.0833323543581
 10
412.573785001568
 20
184.9336686484868
 10
412.3721019268382
 20
184.7843455273585
 10
412.170164505757
 20
184.6353663328849
 10
411.9679712976318
 20
184.4867344069779
 10
411.7655208617701
 20
184.3384530915491
 10
411.5628117574794
 20
184.1905257285106
 10
411.3598425440673
 20
184.0429556597739
 10
411.1566117808412
 20
183.895746227251
 10
410.9531180271089
 20
183.7489007728536
 10
410.7493598421775
 20
183.6024226384935
 10
410.5453357853547
 20
183.4563151660826
 10
410.3410444145801
 20
183.3105817026932
 10
410.1524456611191
 20
183.1765470599639
 10
409.9636171761439
 20
183.0428363153977
 10
409.7745577409635
 20
182.9094524258614
 10
409.5852661368871
 20
182.7763983482216
 10
409.3957411452237
 20
182.6436770393448
 10
409.2059815472824
 20
182.5112914560975
 10
409.015986124372
 20
182.3792445553463
 10
408.825753657802
 20
182.2475392939579
 10
408.6352829288811
 20
182.1161786287987
 10
408.4445727189185
 20
181.9851655167354
 10
408.2536218092233
 20
181.8545029146345
 10
408.0624289811044
 20
181.7241937793627
 10
407.870993015871
 20
181.5942410677863
 10
407.6793126948322
 20
181.4646477367721
 10
407.4873867992969
 20
181.3354167431866
 10
407.2952141105743
 20
181.2065510438964
 10
407.0934748854611
 20
181.0718443696766
 10
406.8914619737768
 20
180.937546309598
 10
406.6891743875595
 20
180.8036608645093
 10
406.4866111398856
 20
180.6701920367396
 10
406.283771243831
 20
180.5371438286177
 10
406.0806537124723
 20
180.4045202424725
 10
405.8772575588856
 20
180.272325280633
 10
405.6735817961471
 20
180.1405629454279
 10
405.4696254373332
 20
180.0092372391862
 10
405.26538749552
 20
179.8783521642368
 10
405.0608669837839
 20
179.7479117229085
 10
404.8560629152009
 20
179.6179199175303
 10
404.6509742530554
 20
179.4883807684413
 10
404.4455997317897
 20
179.3592983787543
 10
404.2399380201446
 20
179.2306768753471
 10
404.0339877868551
 20
179.1025203850995
 10
403.9273281403824
 20
179.0364039815875
 10
403.8205907336309
 20
178.9704137096689
 10
403.7137753822735
 20
178.9045501407516
 10
403.6068819019833
 20
178.8388138462429
 10
403.4999101084337
 20
178.7732053975507
 10
403.3928598172976
 20
178.7077253660822
 10
403.2857308442481
 20
178.6423743232453
 10
403.1785230049584
 20
178.5771528404474
 10
403.0712270908197
 20
178.5120560215381
 10
402.9638519284464
 20
178.4470899275116
 10
402.8563973334651
 20
178.3822551299196
 10
402.7488631215025
 20
178.3175522003139
 10
402.6412491081852
 20
178.2529817102462
 10
402.5335551091398
 20
178.1885442312683
 10
402.4257809399929
 20
178.1242403349318
 10
402.3179264163713
 20
178.0600705927884
  0
LWPOLYLINE
  5
9F
330
1F
100
AcDbEntity
  8
0
 62
     1
100
AcDbPolyline
 90
       39
 70
     0
 43
0.0
 10
416.6481010424505
 20
190.1311279847662
 10
416.6467078078263
 20
190.0259144095099
 10
416.6425148310865
 20
189.9207891270461
 10
416.6355291793885
 20
189.8157506526506
 10
416.6257508762903
 20
189.7107981406876
 10
416.6131994782227
 20
189.6061306199461
 10
416.5978223465819
 20
189.5014076085348
 10
416.579639178779
 20
189.396902749452
 10
416.5587034365501
 20
189.2928930758688
 10
416.5350472843819
 20
189.1894547106781
 10
416.5087029250242
 20
189.0866637953144
 10
416.4795563285504
 20
188.9841058343085
 10
416.4474470570893
 20
188.8813745052962
 10
416.412687081607
 20
188.7795160516299
 10
416.3753221138322
 20
188.6785869963855
 10
416.3353978654934
 20
188.5786438626394
 10
416.2929600483195
 20
188.4797431734677
 10
416.247096464979
 20
188.3799180637432
 10
416.1987203673431
 20
188.2812852647129
 10
416.147891177044
 20
188.183891459443
 10
416.0946683157996
 20
188.0877833308933
 10
416.0391112053278
 20
187.9930075620236
 10
415.9802538594423
 20
187.8979983352466
 10
415.9185729968946
 20
187.8036599478472
 10
415.8546270905531
 20
187.7108407585736
 10
415.7884816693321
 20
187.6195707465407
 10
415.7202022621464
 20
187.5298798908637
 10
415.649136681334
 20
187.4409206201982
 10
415.5745536195375
 20
187.351909572405
 10
415.4979222280916
 20
187.264658352819
 10
415.419317999584
 20
187.1791897658106
 10
415.3388164266023
 20
187.0955266157506
 10
415.2564914405517
 20
187.0136894739499
 10
415.1703171201608
 20
186.9317401991196
 10
415.082362108221
 20
186.8517178850207
 10
414.9921745115449
 20
186.7731838806393
 10
414.8992651547634
 20
186.6957441348706
 10
414.8047190924018
 20
186.6203055991114
 10
414.7728519840575
 20
186.5956045734861
  0
LINE
  5
A0
330
1F
100
AcDbEntity
  8
0
 62
     1
100
AcDbLine
 10
416.6481010423029
 20
195.0600706713781
 30
0.0
 11
416.6481010423029
 21
190.1311384832436
 31
0.0
  0
LWPOLYLINE
  5
A1
330
1F
100
AcDbEntity
  8
0
 62
     1
100
AcDbPolyline
 90
       55
 70
     0
 43
0.0
 10
401.1562396564035
 20
209.4242153892361
 10
400.8653975360481
 20
209.473347783008
 10
400.5742045416807
 20
209.5200763026712
 10
400.2827132427811
 20
209.5644522244223
 10
399.9909582104748
 20
209.6065276382764
 10
399.6989519511631
 20
209.6463556319335
 10
399.4067056219045
 20
209.6839893541056
 10
399.3019183820895
 20
209.6969520677449
 10
399.1971022574646
 20
209.7096422523023
 10
399.0922577615144
 20
209.7220623538575
 10
398.9873854077238
 20
209.7342148184901
 10
398.8824857095773
 20
209.7461020922797
 10
398.7775591805599
 20
209.7577266213058
 10
398.6726063341564
 20
209.7690908516482
 10
398.5676276838514
 20
209.7801972293865
 10
398.4626237431296
 20
209.7910482006002
 10
398.357595025476
 20
209.801646211369
 10
398.2525420443751
 20
209.8119937077724
 10
398.1474653133119
 20
209.8220931358902
 10
398.042365345771
 20
209.8319469418018
 10
397.9372426552372
 20
209.841557571587
 10
397.8320977551953
 20
209.8509274713253
 10
397.7269311591299
 20
209.8600590870963
 10
397.566948864723
 20
209.8734955749438
 10
397.4069193828351
 20
209.8863951818652
 10
397.2468447287671
 20
209.8987661694649
 10
397.0867274187648
 20
209.9106159777278
 10
396.9265700428227
 20
209.9219519256808
 10
396.7663751909355
 20
209.9327813323504
 10
396.6061454530978
 20
209.9431115167631
 10
396.4458834193042
 20
209.9529497979457
 10
396.2855916795493
 20
209.9623034949248
 10
396.1252728238276
 20
209.971179926727
 10
395.9649294421338
 20
209.979586412379
 10
395.8045641244623
 20
209.9875302709074
 10
395.6441794608079
 20
209.9950188213388
 10
395.4837779312728
 20
210.0020593558774
 10
395.3233609866188
 20
210.008658915486
 10
395.1629295150468
 20
210.0148244038177
 10
395.0061869534616
 20
210.020435070187
 10
394.8494321926867
 20
210.0256444900209
 10
394.6926660555152
 20
210.0304590986928
 10
394.5358893647409
 20
210.034885331576
 10
394.3791029431568
 20
210.0389296240441
 10
394.2223076135564
 20
210.0425984114703
 10
394.0655041987329
 20
210.045898129228
 10
393.9086935214798
 20
210.0488352126908
 10
393.7449890560752
 20
210.0515213815595
 10
393.5812785090037
 20
210.053826697876
 10
393.4175628162978
 20
210.0557584826984
 10
393.2538429139901
 20
210.0573240570848
 10
393.0901197381127
 20
210.0585307420937
 10
392.9263942246981
 20
210.0593858587831
 10
392.7626673097789
 20
210.0598967282112
 10
392.5989399293871
 20
210.0600706714364
  0
LWPOLYLINE
  5
A2
330
1F
100
AcDbEntity
  8
0
 62
     1
100
AcDbPolyline
 90
      120
 70
     0
 43
0.0
 10
416.6481010461474
 20
195.0600527304482
 10
416.6477035367642
 20
195.1652430307547
 10
416.6463598261111
 20
195.2704085090718
 10
416.644072129046
 20
195.3755421873648
 10
416.640842660427
 20
195.4806370875991
 10
416.6366736351119
 20
195.5856862317401
 10
416.6315672679585
 20
195.690682641753
 10
416.625525773825
 20
195.7956193396033
 10
416.618551367569
 20
195.9004893472564
 10
416.6106462640486
 20
196.0052856866776
 10
416.6018126781215
 20
196.1100013798323
 10
416.5920528246459
 20
196.2146294486858
 10
416.5813689184795
 20
196.3191629152034
 10
416.5697631744802
 20
196.4235948013507
 10
416.5572378075059
 20
196.5279181290928
 10
416.5437950324147
 20
196.6321259203952
 10
416.5294370640643
 20
196.7362111972233
 10
416.5139844720221
 20
196.8413664987961
 10
416.4975999893544
 20
196.9463820777406
 10
416.4802859085281
 20
197.0512507115097
 10
416.4620445220104
 20
197.1559651775568
 10
416.4428781222684
 20
197.2605182533347
 10
416.4227890017695
 20
197.3649027162967
 10
416.4017794529805
 20
197.4691113438959
 10
416.3798517683688
 20
197.5731369135854
 10
416.3570082404013
 20
197.6769722028181
 10
416.3332511615453
 20
197.7806099890474
 10
416.3085828242679
 20
197.8840430497263
 10
416.2830055210363
 20
197.9872641623078
 10
416.2565215443175
 20
198.0902661042451
 10
416.2291331865788
 20
198.1930416529914
 10
416.2008427402872
 20
198.2955835859996
 10
416.1716524979098
 20
198.3978846807228
 10
416.1091588849316
 20
198.6063350050873
 10
416.04293060801
 20
198.8136858946932
 10
415.972987376793
 20
199.0198755741482
 10
415.8993582261699
 20
199.2248437732972
 10
415.8220891359528
 20
199.4285329571561
 10
415.7412278793781
 20
199.6308858802274
 10
415.656822229683
 20
199.8318452970133
 10
415.5689199601039
 20
200.0313539620164
 10
415.4775688438777
 20
200.229354629739
 10
415.3828166542411
 20
200.4257900546833
 10
415.2847111644309
 20
200.620602991352
 10
415.1833001476838
 20
200.8137361942472
 10
415.0786313772364
 20
201.0051324178713
 10
414.9707526263257
 20
201.1947344167269
 10
414.8597116681883
 20
201.3824849453162
 10
414.7455562760611
 20
201.5683267581416
 10
414.6206379094683
 20
201.7640450110774
 10
414.4923084697497
 20
201.9574940121196
 10
414.3606373449697
 20
202.1486465824518
 10
414.2256939902591
 20
202.337475783214
 10
414.0875478607488
 20
202.5239546755464
 10
413.9462684115696
 20
202.7080563205893
 10
413.8019250978524
 20
202.8897537794828
 10
413.654587374728
 20
203.069020113367
 10
413.5043246973273
 20
203.2458283833823
 10
413.3512065207811
 20
203.4201516506687
 10
413.1953023002203
 20
203.5919629763665
 10
413.0366814907758
 20
203.7612354216158
 10
412.8754135475783
 20
203.9279420475568
 10
412.7115679257589
 20
204.0920559153297
 10
412.5452139169491
 20
204.2535511587196
 10
412.376418406317
 20
204.4124176992592
 10
412.2569779478076
 20
204.5219394242744
 10
412.13639785291
 20
204.630177678499
 10
412.0147003443357
 20
204.7371332290119
 10
411.8919076447963
 20
204.8428068428923
 10
411.7680419770035
 20
204.9471992872194
 10
411.6431255636686
 20
205.0503113290721
 10
411.5171806275033
 20
205.1521437355297
 10
411.3902293912192
 20
205.2526972736711
 10
411.2622940775279
 20
205.3519727105755
 10
411.1333969091407
 20
205.449970813322
 10
411.0035601087695
 20
205.5466923489896
 10
410.8728058991256
 20
205.6421380846575
 10
410.7411565029207
 20
205.7363087874048
 10
410.6086341215459
 20
205.829205241421
 10
410.4752584592967
 20
205.9208302349247
 10
410.3410444145801
 20
206.0111904130706
 10
410.1850013448086
 20
206.1139924285114
 10
410.0278810951409
 20
206.2151274855955
 10
409.8697057801336
 20
206.3146064987119
 10
409.7104975143429
 20
206.4124403822497
 10
409.5502784123256
 20
206.5086400505982
 10
409.3890705886379
 20
206.6032164181464
 10
409.2268961578363
 20
206.6961803992835
 10
409.0637772344774
 20
206.7875429083987
 10
408.8085673329022
 20
206.9263148666125
 10
408.5512145843442
 20
207.0612896458226
 10
408.2918018835444
 20
207.1925081577906
 10
408.0304123968435
 20
207.3200112876161
 10
407.7671409680185
 20
207.4438387740584
 10
407.5020982913619
 20
207.5640287998777
 10
407.2353961918834
 20
207.6806194368351
 10
406.9671464945925
 20
207.7936487566913
 10
406.697461024499
 20
207.9031548312075
 10
406.4264516066125
 20
208.0091757321445
 10
406.1542300659428
 20
208.1117495312634
 10
405.8809070449921
 20
208.2109146593326
 10
405.6065573081478
 20
208.3067204396655
 10
405.3312141324124
 20
208.3992287910868
 10
405.0549084830016
 20
208.4885023342765
 10
404.7776713251309
 20
208.5746036899146
 10
404.6387008327348
 20
208.6164880287165
 10
404.4995090364613
 20
208.6576026682256
 10
404.3600998079874
 20
208.6979554380994
 10
404.2204770189899
 20
208.7375541679958
 10
404.0806445411457
 20
208.7764066875725
 10
403.7494114890104
 20
208.8652949595165
 10
403.4640250170601
 20
208.9384313258764
 10
403.1778607426369
 20
209.0086676201351
 10
402.8909510373736
 20
209.0760693071577
 10
402.6033288245649
 20
209.14070147347
 10
402.3150374985989
 20
209.2026220243325
 10
402.0261298238446
 20
209.2618824389038
 10
401.7366588952569
 20
209.3185339696205
 10
401.4466778077915
 20
209.3726278689192
 10
401.1562396564035
 20
209.4242153892361
  0
LINE
  5
A3
330
1F
100
AcDbEntity
  8
0
 62
     1
100
AcDbLine
 10
392.5989278709637
 20
210.0600706713781
 30
0.0
 11
188.4150091046426
 21
210.060070671378
 31
0.0
  0
LWPOLYLINE
  5
A4
330
1F
100
AcDbEntity
  8
0
 62
     1
100
AcDbPolyline
 90
       56
 70
     0
 43
0.0
 10
253.6055703158088
 20
194.8138255893075
 10
253.6487518706552
 20
194.9119435390587
 10
253.6883726253347
 20
195.0115537178675
 10
253.7243896437444
 20
195.1125235277441
 10
253.7567599897813
 20
195.2147203706984
 10
253.7854407273423
 20
195.3180116487405
 10
253.8103889203244
 20
195.4222647638804
 10
253.8315616326246
 20
195.5273471181279
 10
253.84891592814
 20
195.6331261134933
 10
253.8624054299295
 20
195.7393696308006
 10
253.8720407883507
 20
195.8460353864487
 10
253.8778220034034
 20
195.9529826343241
 10
253.8797490750876
 20
196.0600706283132
 10
253.8778220034035
 20
196.1671586223022
 10
253.8720407883509
 20
196.2741058701776
 10
253.8624054299298
 20
196.3807716258257
 10
253.8489159281403
 20
196.487015143133
 10
253.831561632625
 20
196.5927941384983
 10
253.8103889203248
 20
196.6978764927459
 10
253.7854407273427
 20
196.8021296078857
 10
253.7567599897817
 20
196.9054208859277
 10
253.7243896437448
 20
197.0076177288821
 10
253.688372625335
 20
197.1085875387587
 10
253.6487518706554
 20
197.2081977175676
 10
253.605570315809
 20
197.3063156673188
 10
253.5587627135891
 20
197.4030367662337
 10
253.5084993444839
 20
197.4980095569121
 10
253.4548591059139
 20
197.5911183263181
 10
253.3979208953007
 20
197.6822473614163
 10
253.3377636100663
 20
197.7712809491718
 10
253.2744661476325
 20
197.8581033765493
 10
253.2081074054211
 20
197.9425989305134
 10
253.1387681049891
 20
198.024652830149
 10
253.0570470466239
 20
198.1142108799773
 10
252.9718267631901
 20
198.2003871864299
 10
252.8832754969401
 20
198.2830433120359
 10
252.7915614901258
 20
198.3620408193245
 10
252.6968461761417
 20
198.4372482150532
 10
252.6099314285922
 20
198.5010582294983
 10
252.5206107003415
 20
198.5618543693725
 10
252.3946260662971
 20
198.6400177458686
 10
252.3006530223801
 20
198.6929616558199
 10
252.2047263120895
 20
198.7426076120341
 10
252.1070106767447
 20
198.7888775051716
 10
252.007689323528
 20
198.8316875762692
 10
251.9069454596221
 20
198.8709540663643
 10
251.8049618504913
 20
198.906593646991
 10
251.7018940098747
 20
198.9385495491566
 10
251.5975535093765
 20
198.9668827082818
 10
251.49234606659
 20
198.9914840034639
 10
251.3863817428735
 20
199.0123417858036
 10
251.2797705995855
 20
199.0294444064017
 10
251.1724317765876
 20
199.0428005658476
 10
251.0646649344382
 20
199.0523647968275
 10
250.9565807226072
 20
199.0581253881962
 10
250.8482897905645
 20
199.0600706288085
  0
LWPOLYLINE
  5
A5
330
1F
100
AcDbEntity
  8
0
 62
     1
100
AcDbPolyline
 90
      120
 70
     0
 43
0.0
 10
250.848287399872
 20
199.0600706285941
 10
250.7400256845279
 20
199.0581521044613
 10
250.6319412321666
 20
199.052398285673
 10
250.5241546233437
 20
199.0428268622702
 10
250.4167864386148
 20
199.029455524294
 10
250.3101551601448
 20
199.0123373270624
 10
250.2041807951029
 20
198.9914685377116
 10
250.0989832532198
 20
198.9668667478676
 10
249.9946824442259
 20
198.9385495491567
 10
249.8916896917735
 20
198.9066305564725
 10
249.7898277194796
 20
198.871054290327
 10
249.6892279421359
 20
198.8318650399008
 10
249.5900291305884
 20
198.7891228648769
 10
249.4923701749609
 20
198.7428880806553
 10
249.396389965377
 20
198.6932210026362
 10
249.3022273919606
 20
198.6401819462196
 10
249.210021344834
 20
198.5838312268067
 10
249.1201124922478
 20
198.524376072985
 10
249.0323922364008
 20
198.4617690670073
 10
248.9469637400836
 20
198.3960943998428
 10
248.8639301660869
 20
198.3274362624609
 10
248.7833946772011
 20
198.255878845831
 10
248.7054604362168
 20
198.1815063409225
 10
248.6302306059244
 20
198.1044029387047
 10
248.5578083491131
 20
198.024652830149
 10
248.4884845939378
 20
197.9425806598888
 10
248.4221354025062
 20
197.858074668782
 10
248.3588411327785
 20
197.7712489136669
 10
248.2986821427144
 20
197.6822174513821
 10
248.241738790274
 20
197.5910943387663
 10
248.1880914334173
 20
197.4979936326579
 10
248.137820430104
 20
197.4030293898957
 10
248.0910061382928
 20
197.3063156673188
 10
248.0478199981132
 20
197.2082026186459
 10
248.0081966831519
 20
197.1085950066386
 10
247.9721787720338
 20
197.0076258962713
 10
247.9398088433838
 20
196.9054283525181
 10
247.9111294758266
 20
196.8021354403534
 10
247.8861832479873
 20
196.6978802247514
 10
247.8650127384906
 20
196.5927957706866
 10
247.8476605259613
 20
196.487015143133
 10
247.8341726885677
 20
196.380770811045
 10
247.8245385190009
 20
196.2741049389996
 10
247.8187580172608
 20
196.1671580403159
 10
247.8168311833474
 20
196.0600706283132
 10
247.8187580172608
 20
195.9529832163103
 10
247.8245385190009
 20
195.8460363176267
 10
247.8341726885677
 20
195.7393704455812
 10
247.8476605259613
 20
195.6331261134933
 10
247.8650127384906
 20
195.5273454859397
 10
247.8861832479873
 20
195.4222610318748
 10
247.9111294758267
 20
195.3180058162728
 10
247.9398088433838
 20
195.2147129041082
 10
247.9721787720338
 20
195.112515360355
 10
248.0081966831519
 20
195.0115462499876
 10
248.0478199981132
 20
194.9119386379803
 10
248.0910061382928
 20
194.8138255893075
 10
248.137820430104
 20
194.7171118667306
 10
248.1880914334172
 20
194.6221476239684
 10
248.241738790274
 20
194.5290469178601
 10
248.2986821427144
 20
194.4379238052443
 10
248.3588411327784
 20
194.3488923429595
 10
248.4221354025061
 20
194.2620665878444
 10
248.4884845939376
 20
194.1775605967375
 10
248.5578083491129
 20
194.0954884264773
 10
248.630230605924
 20
194.0157383179217
 10
248.7054604362162
 20
193.9386349157037
 10
248.7833946772004
 20
193.8642624107952
 10
248.863930166086
 20
193.7927049941653
 10
248.9469637400826
 20
193.7240468567834
 10
249.0323922363995
 20
193.6583721896189
 10
249.1201124922463
 20
193.5957651836412
 10
249.2100213448325
 20
193.5363100298196
 10
249.3022273919593
 20
193.4799593104066
 10
249.396389965376
 20
193.42692025399
 10
249.4923701749601
 20
193.3772531759708
 10
249.5900291305881
 20
193.3310183917494
 10
249.6892279421359
 20
193.2882762167254
 10
249.7898277194799
 20
193.2490869662993
 10
249.8916896917741
 20
193.2135107001538
 10
249.9946824442268
 20
193.1815917074696
 10
250.0989832532206
 20
193.1532745087587
 10
250.2041807951037
 20
193.1286727189147
 10
250.3101551601454
 20
193.1078039295639
 10
250.4167864386153
 20
193.0906857323323
 10
250.5241546233441
 20
193.0773143943561
 10
250.6319412321668
 20
193.0677429709532
 10
250.740025684528
 20
193.0619891521649
 10
250.848287399872
 20
193.0600706280321
 10
250.9565807226072
 20
193.0620158684301
 10
251.0646649344381
 20
193.0677764597988
 10
251.1724317765875
 20
193.0773406907787
 10
251.2797705995854
 20
193.0906968502246
 10
251.3863817428733
 20
193.1077994708227
 10
251.4923460665897
 20
193.1286572531624
 10
251.5975535093762
 20
193.1532585483445
 10
251.7018940098743
 20
193.1815917074696
 10
251.8049618504909
 20
193.2135476096353
 10
251.9069454596216
 20
193.2491871902621
 10
252.0076893235275
 20
193.2884536803571
 10
252.1070106767441
 20
193.3312637514549
 10
252.204726312089
 20
193.3775336445923
 10
252.3006530223795
 20
193.4271796008065
 10
252.3946260662965
 20
193.4801235107577
 10
252.4865551092679
 20
193.5363100298196
 10
252.5766936730658
 20
193.5959129362736
 10
252.6646287214525
 20
193.6586821238429
 10
252.7603163350858
 20
193.7326048201886
 10
252.853047268694
 20
193.8103520925962
 10
252.9426714753822
 20
193.8918040607043
 10
253.0290207800048
 20
193.9768223554825
 10
253.1119269403096
 20
194.0652685394601
 10
253.2081074054204
 20
194.177542326113
 10
253.2744661476318
 20
194.2620378800772
 10
253.3377636100657
 20
194.3488603074546
 10
253.3979208953002
 20
194.43789389521
 10
253.4548591059134
 20
194.5290229303083
 10
253.5084993444836
 20
194.6221316997142
 10
253.5587627135888
 20
194.7171044903926
 10
253.6055703158088
 20
194.8138255893075
  0
LWPOLYLINE
  5
A6
330
1F
100
AcDbEntity
  8
0
 62
     1
100
AcDbPolyline
 90
       58
 70
     0
 43
0.0
 10
174.2413955045392
 20
194.717111867409
 10
174.2882097943005
 20
194.8138255893075
 10
174.331395932233
 20
194.911938632897
 10
174.3710192450079
 20
195.0115462369595
 10
174.4070371542909
 20
195.1125153386776
 10
174.4394070817478
 20
195.2147128752338
 10
174.4680864490446
 20
195.3180057838109
 10
174.493032677847
 20
195.4222610015915
 10
174.5142031898207
 20
195.527345465758
 10
174.5315554066318
 20
195.6331261134933
 10
174.5450432501324
 20
195.739370476427
 10
174.5546774266165
 20
195.8460363845084
 10
174.5604579348066
 20
195.9529833174166
 10
174.562384773425
 20
196.0600707548309
 10
174.5604579411942
 20
196.1671581764305
 10
174.5546774368367
 20
196.2741050618945
 10
174.545043259075
 20
196.3807708909023
 10
174.5315554066315
 20
196.487015143133
 10
174.514203171906
 20
196.5927956523236
 10
174.4930326368854
 20
196.6978799699764
 10
174.4680863850291
 20
196.8021350570504
 10
174.4394069997968
 20
196.9054278745051
 10
174.4070370646482
 20
197.0076253833001
 10
174.3710191630429
 20
197.1085945443943
 10
174.3313958784406
 20
197.2082023187475
 10
174.2882097943009
 20
197.3063156673188
 10
174.2413955855197
 20
197.4030298343914
 10
174.1911246778648
 20
197.4979945893363
 10
174.1374774111191
 20
197.5910957779713
 10
174.0805341250668
 20
197.6822192461149
 10
174.0203751594925
 20
197.7712508395858
 10
173.9570808541805
 20
197.8580764042027
 10
173.8907315489151
 20
197.9425817857842
 10
173.821407583481
 20
198.0246528301491
 10
173.7489850148343
 20
198.1044012688446
 10
173.673754825139
 20
198.1815027464588
 10
173.5958202455159
 20
198.2558734379434
 10
173.515284507087
 20
198.3274295182521
 10
173.4322508409748
 20
198.3960871623391
 10
173.3468224783013
 20
198.4617625451579
 10
173.2591026501887
 20
198.5243718416625
 10
173.1691945877593
 20
198.5838312268067
 10
173.0769897112201
 20
198.6401882144475
 10
172.9828284835016
 20
198.6932344748464
 10
172.8868495350222
 20
198.7429082998798
 10
172.7891914962013
 20
198.7891479814253
 10
172.6899929974586
 20
198.8318918113602
 10
172.5893926692136
 20
198.871078081562
 10
172.4875290266377
 20
198.9066453650907
 10
172.3845334883686
 20
198.9385495491567
 10
172.2802458429598
 20
198.9668444333282
 10
172.1750614848718
 20
198.9914246355281
 10
172.0691007235565
 20
199.0122753806658
 10
171.9624838684658
 20
199.0293818936508
 10
171.8551012163847
 20
199.0427539449489
 10
171.7473015664205
 20
199.0523359977309
 10
171.6392060028005
 20
199.058113181757
 10
171.5309356097517
 20
199.0600706267871
  0
LWPOLYLINE
  5
A7
330
1F
100
AcDbEntity
  8
0
 62
     1
100
AcDbPolyline
 90
      120
 70
     0
 43
0.0
 10
171.5309268783693
 20
199.0600706285941
 10
171.4226651630041
 20
199.0581521044644
 10
171.3145807106375
 20
199.0523982856733
 10
171.2067941018201
 20
199.0428268622642
 10
171.0994259171018
 20
199.0294555242807
 10
170.9927946386468
 20
199.012337327044
 10
170.8868202736144
 20
198.991468537692
 10
170.7816227317297
 20
198.9668667478534
 10
170.6773219227181
 20
198.9385495491566
 10
170.5743291702242
 20
198.9066305564972
 10
170.4724671978637
 20
198.8710542903892
 10
170.37186742044
 20
198.8318650400066
 10
170.2726686088215
 20
198.7891228650206
 10
170.1750096531546
 20
198.7428880808193
 10
170.0790294435856
 20
198.693221002791
 10
169.9848668702607
 20
198.6401819463237
 10
169.8926608233249
 20
198.5838312268067
 10
169.802751971035
 20
198.5243760728245
 10
169.7150317155366
 20
198.4617690666584
 10
169.6296032195519
 20
198.3960943993146
 10
169.5465696458028
 20
198.3274362617992
 10
169.4660341570116
 20
198.2558788451186
 10
169.3880999159003
 20
198.1815063402788
 10
169.3128700851911
 20
198.1044029382861
 10
169.2404478276044
 20
198.024652830149
 10
169.1711240712851
 20
197.9425806605061
 10
169.1047748785372
 20
197.8580746701093
 10
169.0414806075702
 20
197.7712489156625
 10
168.9813216165938
 20
197.6822174538698
 10
168.9243782638176
 20
197.5910943414351
 10
168.8707309074512
 20
197.4979936350623
 10
168.820459905704
 20
197.4030293914552
 10
168.7736456167842
 20
197.3063156673188
 10
168.7304594808593
 20
197.208202616351
 10
168.6908361707877
 20
197.1085950017064
 10
168.654818264269
 20
197.0076258888584
 10
168.6224483390026
 20
196.9054283432802
 10
168.5937689726883
 20
196.8021354304452
 10
168.5688227430254
 20
196.6978802158268
 10
168.5476522277137
 20
196.5927957648982
 10
168.5303000044526
 20
196.4870151431329
 10
168.5168121512369
 20
196.3807708195787
 10
168.5071779634744
 20
196.2741049573474
 10
168.5013974446121
 20
196.1671580678986
 10
168.4994705980972
 20
196.0600706626925
 10
168.5013974273767
 20
195.952983253189
 10
168.5071779358977
 20
195.8460363508481
 10
168.5168121271074
 20
195.7393704671295
 10
168.5303000044529
 20
195.6331261134933
 10
168.5476522760512
 20
195.5273454540805
 10
168.568822853549
 20
195.4222609633388
 10
168.5937691454169
 20
195.3180057132029
 10
168.6224485601257
 20
195.2147127756066
 10
168.6548185061462
 20
195.1125152224846
 10
168.690836391949
 20
195.0115461257712
 10
168.7304596260049
 20
194.9119385574008
 10
168.7736456167847
 20
194.8138255893075
 10
168.8204596872015
 20
194.7171119861408
 10
168.8707304354273
 20
194.6221478809614
 10
168.9243775519779
 20
194.5290473044634
 10
168.9813207273675
 20
194.4379242873408
 10
169.0414796521106
 20
194.3488928602872
 10
169.1047740167215
 20
194.2620670539963
 10
169.1711235117145
 20
194.1775608991617
 10
169.240447827604
 20
194.0954884264773
 10
169.3128709160221
 20
194.0157378693898
 10
169.3881017047807
 20
193.9386339502178
 10
169.46603684886
 20
193.8642609582201
 10
169.546573003239
 20
193.792703182653
 10
169.6296068228963
 20
193.7240449127731
 10
169.7150349628111
 20
193.658370437837
 10
169.8027540779619
 20
193.5957640471009
 10
169.8926608233247
 20
193.5363100298196
 10
169.9843690924996
 20
193.4802510842691
 10
170.0780127067072
 20
193.4274686216722
 10
170.1734553928577
 20
193.3780219074506
 10
170.2705608778613
 20
193.3319702070257
 10
170.3691928886283
 20
193.2893727858191
 10
170.4692151520687
 20
193.2502889092522
 10
170.5704914944768
 20
193.2147776241769
 10
170.6728925610261
 20
193.1828829810449
 10
170.7777075793933
 20
193.1542667966755
 10
170.8834344450282
 20
193.1294042476062
 10
170.9899510838544
 20
193.1083134658818
 10
171.0971354217951
 20
193.091012583547
 10
171.2050686993137
 20
193.0774979267629
 10
171.3134268937988
 20
193.0678238921358
 10
171.4220872402059
 20
193.0620087143421
 10
171.5309269734903
 20
193.0600706280582
 10
171.6391903007506
 20
193.0619895967486
 10
171.7472747648752
 20
193.0677436723718
 10
171.8550614088371
 20
193.0773151974433
 10
171.9624296466226
 20
193.0906865145229
 10
172.0690608792552
 20
193.1078045812908
 10
172.1750352069452
 20
193.1286731751388
 10
172.2802327149103
 20
193.1532747369156
 10
172.3845334883688
 20
193.1815917074696
 10
172.4875262732292
 20
193.2135105293977
 10
172.5893882649825
 20
193.2490866920806
 10
172.689988048769
 20
193.2882759083031
 10
172.7891868567069
 20
193.3310181025639
 10
172.8868458016857
 20
193.3772529433545
 10
172.9828259965944
 20
193.4269200991666
 10
173.0769885543223
 20
193.4799592384913
 10
173.1691945877599
 20
193.5363100298195
 10
173.2591034310431
 20
193.5957652318508
 10
173.3468236817835
 20
193.658372263548
 10
173.4322521764213
 20
193.7240469382998
 10
173.5152857513966
 20
193.7927050694948
 10
173.5958212431498
 20
193.8642624705215
 10
173.673755488121
 20
193.9386349547689
 10
173.7489853227505
 20
194.0157383356253
 10
173.82140758348
 20
194.0954884264773
 10
173.8907313415302
 20
194.1775605860481
 10
173.9570805347795
 20
194.2620665727678
 10
174.0203748053859
 20
194.3488923281736
 10
174.0805337955071
 20
194.4379237938032
 10
174.1374771473012
 20
194.529046911194
 10
174.1911245029259
 20
194.6221476218835
 10
174.2413955045392
 20
194.717111867409
  0
LWPOLYLINE
  5
A8
330
1F
100
AcDbEntity
  8
0
 62
     1
100
AcDbPolyline
 90
       55
 70
     0
 43
0.0
 10
179.8576973191718
 20
209.4242153892278
 10
180.1485394395268
 20
209.4733477829995
 10
180.439732433896
 20
209.5200763026632
 10
180.7312237328002
 20
209.5644522244155
 10
181.0229787651138
 20
209.6065276382715
 10
181.3149850244343
 20
209.6463556319309
 10
181.6072313537019
 20
209.6839893541054
 10
181.7120185935199
 20
209.6969520677455
 10
181.8168347181478
 20
209.7096422523036
 10
181.9216792141007
 20
209.7220623538596
 10
182.0265515678938
 20
209.7342148184928
 10
182.1314512660423
 20
209.7461020922829
 10
182.2363777950614
 20
209.7577266213095
 10
182.3413306414663
 20
209.7690908516524
 10
182.4463092917721
 20
209.7801972293908
 10
182.5513132324942
 20
209.7910482006046
 10
182.6563419501475
 20
209.8016462113733
 10
182.7613949312474
 20
209.8119937077765
 10
182.866471662309
 20
209.8220931358939
 10
182.9715716298475
 20
209.8319469418048
 10
183.076694320378
 20
209.8415575715892
 10
183.1818392204159
 20
209.8509274713264
 10
183.2870058164763
 20
209.8600590870962
 10
183.4469881108737
 20
209.8734955749412
 10
183.6070175927499
 20
209.8863951818595
 10
183.7670922468038
 20
209.8987661694556
 10
183.9272095567907
 20
209.9106159777145
 10
184.0873669327171
 20
209.9219519256633
 10
184.2475617845893
 20
209.9327813323286
 10
184.407791522414
 20
209.9431115167376
 10
184.5680535561974
 20
209.9529497979169
 10
184.7283452959462
 20
209.9623034948936
 10
184.8886641516668
 20
209.9711799266944
 10
185.0490075333657
 20
209.9795864123463
 10
185.2093728510492
 20
209.9875302708761
 10
185.3697575147239
 20
209.9950188213105
 10
185.5301590442856
 20
210.002059355855
 10
185.6905759889645
 20
210.0086589154733
 10
185.8510074605595
 20
210.0148244038175
 10
186.0077504333134
 20
210.0204350843884
 10
186.1645056053173
 20
210.0256445163363
 10
186.3212721537714
 20
210.0304591350842
 10
186.4780492558759
 20
210.0348853760551
 10
186.6348360888312
 20
210.0389296746718
 10
186.7916318298373
 20
210.0425984663573
 10
186.9484356560947
 20
210.0458981865345
 10
187.1052467448037
 20
210.0488352706265
 10
187.2689516586262
 20
210.0515214385835
 10
187.4326626541264
 20
210.0538267520605
 10
187.5963787952643
 20
210.0557585321749
 10
187.7600991459998
 20
210.0573241000435
 10
187.9238227702931
 20
210.0585307767835
 10
188.087548732104
 20
210.0593858835121
 10
188.2512760953927
 20
210.0598967413463
 10
188.415003924119
 20
210.0600706714033
  0
LWPOLYLINE
  5
A9
330
1F
100
AcDbEntity
  8
0
 62
     1
100
AcDbPolyline
 90
      120
 70
     0
 43
0.0
 10
164.3658359295137
 20
195.0600529875725
 10
164.3662334411166
 20
195.1652432798683
 10
164.3675771538427
 20
195.2704087501587
 10
164.3698648528343
 20
195.3755424204108
 10
164.3730943232339
 20
195.4806373125916
 10
164.3772633501843
 20
195.5856864486682
 10
164.3823697188277
 20
195.6906828506079
 10
164.3884112143068
 20
195.7956195403774
 10
164.3953856217641
 20
195.9004895399441
 10
164.4032907263421
 20
196.0052858712749
 10
164.4121243131833
 20
196.110001556337
 10
164.4218841674302
 20
196.2146296170973
 10
164.4325680742253
 20
196.3191630755231
 10
164.4441738187112
 20
196.4235949535815
 10
164.4566991860304
 20
196.5279182732395
 10
164.4701419613254
 20
196.6321260564639
 10
164.4844999297387
 20
196.7362113252223
 10
164.499952521702
 20
196.8413666186441
 10
164.5163370041478
 20
196.9463821894495
 10
164.5336510846093
 20
197.0512508150931
 10
164.5518924706199
 20
197.1559652730301
 10
164.5710588697129
 20
197.2605183407152
 10
164.5911479894216
 20
197.3649027956031
 10
164.6121575372792
 20
197.469111415149
 10
164.6340852208191
 20
197.5731369768077
 10
164.6569287475746
 20
197.676972258034
 10
164.680685825079
 20
197.7806100362829
 10
164.7053541608656
 20
197.8840430890091
 10
164.7309314624676
 20
197.9872641936676
 10
164.7574154374184
 20
198.0902661277134
 10
164.7848037932513
 20
198.1930416686013
 10
164.8130942374996
 20
198.2955835937861
 10
164.8422844776966
 20
198.3978846807227
 10
164.904778090674
 20
198.6063350050578
 10
164.9710063675925
 20
198.8136858946392
 10
165.0409495988034
 20
199.0198755740757
 10
165.1145787494209
 20
199.224843773212
 10
165.1918478396343
 20
199.4285329570635
 10
165.2727090962066
 20
199.630885880132
 10
165.3571147459009
 20
199.8318452969191
 10
165.4450170154802
 20
200.0313539619268
 10
165.5363681317077
 20
200.229354629657
 10
165.6311203213463
 20
200.425790054611
 10
165.7292258111593
 20
200.620602991291
 10
165.8306368279096
 20
200.8137361941987
 10
165.9353055983603
 20
201.0051324178357
 10
166.0431843492744
 20
201.194734416704
 10
166.154225307415
 20
201.3824849453053
 10
166.2683806995453
 20
201.5683267581414
 10
166.3932990661405
 20
201.7640450110866
 10
166.5216285058611
 20
201.9574940121359
 10
166.6532996306425
 20
202.148646582473
 10
166.7882429853539
 20
202.3374757832384
 10
166.9263891148647
 20
202.5239546755724
 10
167.067668564044
 20
202.7080563206155
 10
167.212011877761
 20
202.889753779508
 10
167.3593496008848
 20
203.0690201133905
 10
167.5096122782849
 20
203.2458283834031
 10
167.6627304548301
 20
203.4201516506863
 10
167.8186346753899
 20
203.5919629763807
 10
167.9772554848335
 20
203.7612354216265
 10
168.13852342803
 20
203.927942047564
 10
168.3023690498487
 20
204.0920559153339
 10
168.4687230586577
 20
204.2535511587213
 10
168.6375185692892
 20
204.412417699259
 10
168.7569590277984
 20
204.5219394242732
 10
168.8775391226958
 20
204.630177678497
 10
168.9992366312699
 20
204.7371332290094
 10
169.1220293308092
 20
204.8428068428895
 10
169.245894998602
 20
204.9471992872165
 10
169.3708114119369
 20
205.0503113290692
 10
169.4967563481021
 20
205.1521437355268
 10
169.6237075843863
 20
205.2526972736684
 10
169.7516428980777
 20
205.3519727105731
 10
169.8805400664649
 20
205.4499708133199
 10
170.0103768668363
 20
205.5466923489879
 10
170.1411310764802
 20
205.6421380846562
 10
170.2727804726853
 20
205.7363087874038
 10
170.4053028540602
 20
205.8292052414203
 10
170.5386785163094
 20
205.9208302349242
 10
170.6728925610261
 20
206.0111904130704
 10
170.8289356307977
 20
206.1139924285114
 10
170.9860558804655
 20
206.2151274855956
 10
171.1442311954729
 20
206.314606498712
 10
171.3034394612635
 20
206.4124403822498
 10
171.4636585632809
 20
206.5086400505983
 10
171.6248663869686
 20
206.6032164181464
 10
171.7870408177701
 20
206.6961803992835
 10
171.9501597411291
 20
206.7875429083985
 10
172.2053696427041
 20
206.9263148666121
 10
172.4627223912619
 20
207.0612896458219
 10
172.7221350920613
 20
207.1925081577897
 10
172.9835245787619
 20
207.320011287615
 10
173.2467960075865
 20
207.4438387740571
 10
173.5118386842427
 20
207.5640287998763
 10
173.7785407837209
 20
207.6806194368336
 10
174.0467904810114
 20
207.7936487566898
 10
174.3164759511046
 20
207.903154831206
 10
174.587485368991
 20
208.0091757321431
 10
174.8597069096609
 20
208.1117495312621
 10
175.1330299306119
 20
208.2109146593315
 10
175.4073796674568
 20
208.3067204396646
 10
175.6827228431928
 20
208.3992287910862
 10
175.9590284926043
 20
208.4885023342761
 10
176.2362656504754
 20
208.5746036899144
 10
176.3752361428716
 20
208.6164880287164
 10
176.5144279391453
 20
208.6576026682254
 10
176.6538371676191
 20
208.6979554380993
 10
176.7934599566166
 20
208.7375541679957
 10
176.9332924344605
 20
208.7764066875724
 10
177.264525486595
 20
208.8652949595162
 10
177.5499119585439
 20
208.9384313258757
 10
177.836076232965
 20
209.0086676201338
 10
178.1229859382253
 20
209.0760693071557
 10
178.4106081510301
 20
209.140701473467
 10
178.6988994769915
 20
209.2026220243282
 10
178.9878071517411
 20
209.2618824388983
 10
179.2772780803243
 20
209.3185339696138
 10
179.5672591677861
 20
209.3726278689115
 10
179.8576973191718
 20
209.4242153892278
  0
LINE
  5
AA
330
1F
100
AcDbEntity
  8
0
 62
     1
100
AcDbLine
 10
164.3658359333035
 20
195.0600706713781
 30
0.0
 11
164.3658359333035
 21
190.1311384832436
 31
0.0
  0
LWPOLYLINE
  5
AB
330
1F
100
AcDbEntity
  8
0
 62
     1
100
AcDbPolyline
 90
       39
 70
     0
 43
0.0
 10
164.3658359331558
 20
190.1311279847661
 10
164.36722916778
 20
190.0259144095098
 10
164.3714221445198
 20
189.920789127046
 10
164.3784077962178
 20
189.8157506526505
 10
164.3881860993161
 20
189.7107981406875
 10
164.4007374973837
 20
189.606130619946
 10
164.4161146290245
 20
189.5014076085347
 10
164.4342977968275
 20
189.3969027494519
 10
164.4552335390562
 20
189.2928930758687
 10
164.4788896912244
 20
189.189454710678
 10
164.5052340505821
 20
189.0866637953143
 10
164.5343806470559
 20
188.9841058343084
 10
164.5664899185169
 20
188.881374505296
 10
164.6012498939992
 20
188.7795160516297
 10
164.6386148617741
 20
188.6785869963854
 10
164.6785391101129
 20
188.5786438626393
 10
164.7209769272868
 20
188.4797431734676
 10
164.7668405106274
 20
188.3799180637431
 10
164.8152166082633
 20
188.2812852647128
 10
164.8660457985624
 20
188.1838914594429
 10
164.9192686598067
 20
188.0877833308932
 10
164.9748257702785
 20
187.9930075620235
 10
165.033683116164
 20
187.8979983352464
 10
165.0953639787117
 20
187.8036599478471
 10
165.1593098850533
 20
187.7108407585735
 10
165.2254553062742
 20
187.6195707465407
 10
165.29373471346
 20
187.5298798908636
 10
165.3648002942724
 20
187.4409206201981
 10
165.4393833560689
 20
187.3519095724049
 10
165.5160147475148
 20
187.2646583528189
 10
165.5946189760224
 20
187.1791897658106
 10
165.6751205490041
 20
187.0955266157505
 10
165.7574455350547
 20
187.0136894739497
 10
165.8436198554455
 20
186.9317401991195
 10
165.9315748673854
 20
186.8517178850206
 10
166.0217624640615
 20
186.7731838806392
 10
166.1146718208431
 20
186.6957441348704
 10
166.2092178832047
 20
186.6203055991112
 10
166.2410849915489
 20
186.5956045734859
  0
LWPOLYLINE
  5
AC
330
1F
100
AcDbEntity
  8
0
 62
     1
100
AcDbPolyline
 90
       73
 70
     0
 43
0.0
 10
178.6960105592352
 20
178.0600705927883
 10
178.5881560356135
 20
178.1242403349318
 10
178.4803818664666
 20
178.1885442312682
 10
178.3726878674212
 20
178.2529817102462
 10
178.2650738541038
 20
178.3175522003139
 10
178.1575396421413
 20
178.3822551299197
 10
178.0500850471599
 20
178.4470899275116
 10
177.9427098847866
 20
178.5120560215381
 10
177.8354139706479
 20
178.5771528404475
 10
177.7282061313582
 20
178.6423743232454
 10
177.6210771583087
 20
178.7077253660823
 10
177.5140268671725
 20
178.7732053975507
 10
177.4070550736228
 20
178.838813846243
 10
177.3001615933327
 20
178.9045501407517
 10
177.1933462419753
 20
178.970413709669
 10
177.0866088352238
 20
179.0364039815875
 10
176.9799491887512
 20
179.1025203850997
 10
176.7739989554616
 20
179.2306768753473
 10
176.5683372438165
 20
179.3592983787545
 10
176.3629627225507
 20
179.4883807684414
 10
176.1578740604052
 20
179.6179199175305
 10
175.9530699918224
 20
179.7479117229087
 10
175.7485494800862
 20
179.8783521642369
 10
175.544311538273
 20
180.0092372391863
 10
175.340355179459
 20
180.1405629454281
 10
175.1366794167206
 20
180.2723252806331
 10
174.9332832631338
 20
180.4045202424727
 10
174.7301657317751
 20
180.5371438286178
 10
174.5273258357206
 20
180.6701920367398
 10
174.3247625880466
 20
180.8036608645095
 10
174.1224750018292
 20
180.9375463095981
 10
173.9204620901449
 20
181.0718443696768
 10
173.7187228650318
 20
181.2065510438966
 10
173.5265501763091
 20
181.3354167431867
 10
173.3346242807739
 20
181.4646477367722
 10
173.142943959735
 20
181.5942410677865
 10
172.9515079945016
 20
181.7241937793628
 10
172.7603151663828
 20
181.8545029146347
 10
172.5693642566876
 20
181.9851655167355
 10
172.3786540467251
 20
182.1161786287989
 10
172.1881833178041
 20
182.247539293958
 10
171.9979508512341
 20
182.3792445553465
 10
171.8079554283239
 20
182.5112914560976
 10
171.6181958303825
 20
182.6436770393449
 10
171.428670838719
 20
182.7763983482218
 10
171.2393792346427
 20
182.9094524258616
 10
171.0503197994623
 20
183.0428363153978
 10
170.8614913144871
 20
183.176547059964
 10
170.6728925610261
 20
183.3105817026934
 10
170.4686011902514
 20
183.4563151660828
 10
170.2645771334287
 20
183.6024226384937
 10
170.0608189484974
 20
183.7489007728538
 10
169.8573251947649
 20
183.8957462272512
 10
169.6540944315389
 20
184.0429556597742
 10
169.4511252181267
 20
184.1905257285107
 10
169.248416113836
 20
184.3384530915493
 10
169.0459656779743
 20
184.4867344069781
 10
168.8437724698491
 20
184.6353663328851
 10
168.6418350487678
 20
184.7843455273587
 10
168.4401519740381
 20
184.933668648487
 10
168.2387218049674
 20
185.0833323543583
 10
168.0375431008632
 20
185.2333333030607
 10
167.8366144210332
 20
185.3836681526824
 10
167.6359343247846
 20
185.5343335613118
 10
167.4355013714252
 20
185.6853261870368
 10
167.2857240425332
 20
185.7984913213203
 10
167.1360836079475
 20
185.9118363003965
 10
166.9865794645539
 20
186.0253597252477
 10
166.8372110092382
 20
186.1390601968557
 10
166.6879776388863
 20
186.252936316203
 10
166.5388787503838
 20
186.3669866842718
 10
166.3899137406167
 20
186.481209902044
 10
166.2410820064708
 20
186.595604570502
  0
LINE
  5
AD
330
1F
100
AcDbEntity
  8
0
 62
     1
100
AcDbLine
 10
178.696019477778
 20
178.060070671378
 30
0.0
 11
402.3179174978283
 21
178.0600706713781
 31
0.0
  0
ENDSEC
  0
SECTION
  2
OBJECTS
  0
DICTIONARY
  5
C
330
0
100
AcDbDictionary
281
     1
  3
ACAD_DETAILVIEWSTYLE
350
B5
  3
ACAD_GROUP
350
D
  3
ACAD_LAYOUT
350
1A
  3
ACAD_MATERIAL
350
43
  3
ACAD_MLEADERSTYLE
350
6B
  3
ACAD_MLINESTYLE
350
17
  3
ACAD_PLOTSETTINGS
350
19
  3
ACAD_PLOTSTYLENAME
350
E
  3
ACAD_SCALELIST
350
47
  3
ACAD_SECTIONVIEWSTYLE
350
B6
  3
ACAD_TABLESTYLE
350
69
  3
ACAD_VISUALSTYLE
350
2A
  3
ACDB_RECOMPOSE_DATA
350
B2
  3
AcDbVariableDictionary
350
AE
  0
SUN
  5
6D
330
29
100
AcDbSun
 90
        1
290
     0
 63
     7
421
 16777215
 40
1.0
291
     1
 91
  2455826
 92
 54000000
292
     0
 70
     2
 71
   256
280
     1
  0
DICTIONARY
  5
B5
102
{ACAD_REACTORS
330
C
102
}
330
C
100
AcDbDictionary
281
     1
  0
DICTIONARY
  5
D
102
{ACAD_REACTORS
330
C
102
}
330
C
100
AcDbDictionary
281
     1
  0
DICTIONARY
  5
1A
102
{ACAD_REACTORS
330
C
102
}
330
C
100
AcDbDictionary
281
     1
  3
Layout1
350
1E
  3
Layout2
350
26
  3
Model
350
22
  0
DICTIONARY
  5
43
102
{ACAD_REACTORS
330
C
102
}
330
C
100
AcDbDictionary
281
     1
  3
ByBlock
350
45
  3
ByLayer
350
44
  3
Global
350
46
  0
DICTIONARY
  5
6B
102
{ACAD_REACTORS
330
C
102
}
330
C
100
AcDbDictionary
281
     1
  3
Standard
350
6C
  0
DICTIONARY
  5
17
102
{ACAD_REACTORS
330
C
102
}
330
C
100
AcDbDictionary
281
     1
  3
Standard
350
18
  0
DICTIONARY
  5
19
102
{ACAD_REACTORS
330
C
102
}
330
C
100
AcDbDictionary
281
     1
  0
ACDBDICTIONARYWDFLT
  5
E
102
{ACAD_REACTORS
330
C
102
}
330
C
100
AcDbDictionary
281
     1
  3
Normal
350
F
100
AcDbDictionaryWithDefault
340
F
  0
DICTIONARY
  5
47
102
{ACAD_REACTORS
330
C
102
}
330
C
100
AcDbDictionary
281
     1
  3
A0
350
48
  3
A1
350
49
  3
A2
350
4A
  3
A3
350
4B
  3
A4
350
4C
  3
A5
350
4D
  3
A6
350
4E
  3
A7
350
4F
  3
A8
350
50
  3
A9
350
51
  3
B0
350
52
  3
B1
350
53
  3
B2
350
54
  3
B3
350
55
  3
B4
350
56
  3
B5
350
57
  3
B6
350
58
  3
B7
350
59
  3
B8
350
5A
  3
B9
350
5B
  3
C0
350
5C
  3
C1
350
5D
  3
C2
350
5E
  3
C3
350
5F
  3
C4
350
60
  3
C5
350
61
  3
C6
350
62
  3
C7
350
63
  3
C8
350
64
  3
C9
350
65
  3
D0
350
66
  3
D1
350
67
  3
D2
350
68
  0
DICTIONARY
  5
B6
102
{ACAD_REACTORS
330
C
102
}
330
C
100
AcDbDictionary
281
     1
  0
DICTIONARY
  5
69
102
{ACAD_REACTORS
330
C
102
}
330
C
100
AcDbDictionary
281
     1
  3
Standard
350
6A
  0
DICTIONARY
  5
2A
102
{ACAD_REACTORS
330
C
102
}
330
C
100
AcDbDictionary
281
     1
  3
2dWireframe
350
2F
  3
Basic
350
32
  3
Brighten
350
36
  3
ColorChange
350
3A
  3
Conceptual
350
34
  3
Dim
350
35
  3
EdgeColorOff
350
3D
  3
Facepattern
350
39
  3
Flat
350
2B
  3
FlatWithEdges
350
2C
  3
Gouraud
350
2D
  3
GouraudWithEdges
350
2E
  3
Hidden
350
31
  3
JitterOff
350
3B
  3
Linepattern
350
38
  3
OverhangOff
350
3C
  3
Realistic
350
33
  3
Shaded
350
42
  3
Shaded with edges
350
41
  3
Shades of Gray
350
3E
  3
Sketchy
350
3F
  3
Thicken
350
37
  3
Wireframe
350
30
  3
X-Ray
350
40
  0
XRECORD
  5
B2
102
{ACAD_REACTORS
330
C
102
}
330
C
100
AcDbXrecord
280
     1
 90
        1
330
6A
  0
DICTIONARY
  5
AE
102
{ACAD_REACTORS
330
C
102
}
330
C
100
AcDbDictionary
281
     1
  3
CANNOSCALE
350
AF
  3
CENTEREXE
350
B7
  3
CENTERLTYPEFILE
350
B8
  3
CMLEADERSTYLE
350
B4
  3
CTABLESTYLE
350
B3
  0
LAYOUT
  5
1E
102
{ACAD_REACTORS
330
1A
102
}
330
1A
100
AcDbPlotSettings
  1

  2
none_device
  4

  6

 40
0.0
 41
0.0
 42
0.0
 43
0.0
 44
0.0
 45
0.0
 46
0.0
 47
0.0
 48
0.0
 49
0.0
140
0.0
141
0.0
142
1.0
143
1.0
 70
   688
 72
     1
 73
     0
 74
     5
  7

 75
    16
 76
     0
 77
     2
 78
   300
147
1.0
148
0.0
149
0.0
100
AcDbLayout
  1
Layout1
 70
     1
 71
     1
 10
0.0
 20
0.0
 11
420.0
 21
297.0
 12
0.0
 22
0.0
 32
0.0
 14
1.000000000000000E+20
 24
1.000000000000000E+20
 34
1.000000000000000E+20
 15
-1.000000000000000E+20
 25
-1.000000000000000E+20
 35
-1.000000000000000E+20
146
0.0
 13
0.0
 23
0.0
 33
0.0
 16
1.0
 26
0.0
 36
0.0
 17
0.0
 27
1.0
 37
0.0
 76
     0
330
1B
  0
LAYOUT
  5
26
102
{ACAD_REACTORS
330
1A
102
}
330
1A
100
AcDbPlotSettings
  1

  2
none_device
  4

  6

 40
0.0
 41
0.0
 42
0.0
 43
0.0
 44
0.0
 45
0.0
 46
0.0
 47
0.0
 48
0.0
 49
0.0
140
0.0
141
0.0
142
1.0
143
1.0
 70
   688
 72
     1
 73
     0
 74
     5
  7

 75
    16
 76
     0
 77
     2
 78
   300
147
1.0
148
0.0
149
0.0
100
AcDbLayout
  1
Layout2
 70
     1
 71
     2
 10
0.0
 20
0.0
 11
0.0
 21
0.0
 12
0.0
 22
0.0
 32
0.0
 14
0.0
 24
0.0
 34
0.0
 15
0.0
 25
0.0
 35
0.0
146
0.0
 13
0.0
 23
0.0
 33
0.0
 16
1.0
 26
0.0
 36
0.0
 17
0.0
 27
1.0
 37
0.0
 76
     0
330
23
  0
LAYOUT
  5
22
102
{ACAD_REACTORS
330
1A
102
}
330
1A
100
AcDbPlotSettings
  1

  2
none_device
  4
Letter_(8.50_x_11.00_Inches)
  6

 40
6.35
 41
6.35
 42
6.35000508
 43
6.35000508
 44
215.9
 45
279.4
 46
0.0
 47
0.0
 48
0.0
 49
0.0
140
0.0
141
0.0
142
1.0
143
1.0
 70
  1712
 72
     1
 73
     0
 74
     0
  7

 75
     0
 76
     0
 77
     2
 78
   300
147
1.0
148
0.0
149
0.0
100
AcDbLayout
  1
Model
 70
     1
 71
     0
 10
0.0
 20
0.0
 11
420.0
 21
297.0
 12
0.0
 22
0.0
 32
0.0
 14
164.3658359295137
 24
178.0600705927883
 34
0.0
 15
416.6481010461474
 25
210.0600706714364
 35
0.0
146
0.0
 13
0.0
 23
0.0
 33
0.0
 16
1.0
 26
0.0
 36
0.0
 17
0.0
 27
1.0
 37
0.0
 76
     0
330
1F
331
29
  0
MATERIAL
  5
45
102
{ACAD_REACTORS
330
43
102
}
330
43
100
AcDbMaterial
  1
ByBlock
 72
     1
 94
      127
  0
MATERIAL
  5
44
102
{ACAD_REACTORS
330
43
102
}
330
43
100
AcDbMaterial
  1
ByLayer
 72
     1
 94
      127
  0
MATERIAL
  5
46
102
{ACAD_REACTORS
330
43
102
}
330
43
100
AcDbMaterial
  1
Global
 72
     1
 94
      127
  0
MLEADERSTYLE
  5
6C
102
{ACAD_REACTORS
330
6B
102
}
330
6B
100
AcDbMLeaderStyle
179
     2
170
     2
171
     1
172
     0
 90
        2
 40
0.0
 41
0.0
173
     1
 91
-1056964608
340
14
 92
       -2
290
     1
 42
2.0
291
     1
 43
8.0
  3
Standard
341
0
 44
4.0
300

342
11
174
     1
178
     6
175
     1
176
     0
 93
-1056964608
 45
4.0
292
     0
297
     0
 46
4.0
343
0
 94
-1056964608
 47
1.0
 49
1.0
140
1.0
293
     1
141
0.0
294
     1
177
     0
142
1.0
295
     0
296
     0
143
3.75
271
     0
272
     9
273
     9
298
     0
  0
MLINESTYLE
  5
18
102
{ACAD_REACTORS
330
17
102
}
330
17
100
AcDbMlineStyle
  2
Standard
 70
     0
  3

 62
   256
 51
90.0
 52
90.0
 71
     2
 49
0.5
 62
   256
  6
BYLAYER
 49
-0.5
 62
   256
  6
BYLAYER
  0
ACDBPLACEHOLDER
  5
F
102
{ACAD_REACTORS
330
E
102
}
330
E
  0
SCALE
  5
48
102
{ACAD_REACTORS
330
47
102
}
330
47
100
AcDbScale
 70
     0
300
1:1
140
1.0
141
1.0
290
     1
  0
SCALE
  5
49
102
{ACAD_REACTORS
330
47
102
}
330
47
100
AcDbScale
 70
     0
300
1:2
140
1.0
141
2.0
290
     0
  0
SCALE
  5
4A
102
{ACAD_REACTORS
330
47
102
}
330
47
100
AcDbScale
 70
     0
300
1:4
140
1.0
141
4.0
290
     0
  0
SCALE
  5
4B
102
{ACAD_REACTORS
330
47
102
}
330
47
100
AcDbScale
 70
     0
300
1:5
140
1.0
141
5.0
290
     0
  0
SCALE
  5
4C
102
{ACAD_REACTORS
330
47
102
}
330
47
100
AcDbScale
 70
     0
300
1:8
140
1.0
141
8.0
290
     0
  0
SCALE
  5
4D
102
{ACAD_REACTORS
330
47
102
}
330
47
100
AcDbScale
 70
     0
300
1:10
140
1.0
141
10.0
290
     0
  0
SCALE
  5
4E
102
{ACAD_REACTORS
330
47
102
}
330
47
100
AcDbScale
 70
     0
300
1:16
140
1.0
141
16.0
290
     0
  0
SCALE
  5
4F
102
{ACAD_REACTORS
330
47
102
}
330
47
100
AcDbScale
 70
     0
300
1:20
140
1.0
141
20.0
290
     0
  0
SCALE
  5
50
102
{ACAD_REACTORS
330
47
102
}
330
47
100
AcDbScale
 70
     0
300
1:30
140
1.0
141
30.0
290
     0
  0
SCALE
  5
51
102
{ACAD_REACTORS
330
47
102
}
330
47
100
AcDbScale
 70
     0
300
1:40
140
1.0
141
40.0
290
     0
  0
SCALE
  5
52
102
{ACAD_REACTORS
330
47
102
}
330
47
100
AcDbScale
 70
     0
300
1:50
140
1.0
141
50.0
290
     0
  0
SCALE
  5
53
102
{ACAD_REACTORS
330
47
102
}
330
47
100
AcDbScale
 70
     0
300
1:100
140
1.0
141
100.0
290
     0
  0
SCALE
  5
54
102
{ACAD_REACTORS
330
47
102
}
330
47
100
AcDbScale
 70
     0
300
2:1
140
2.0
141
1.0
290
     0
  0
SCALE
  5
55
102
{ACAD_REACTORS
330
47
102
}
330
47
100
AcDbScale
 70
     0
300
4:1
140
4.0
141
1.0
290
     0
  0
SCALE
  5
56
102
{ACAD_REACTORS
330
47
102
}
330
47
100
AcDbScale
 70
     0
300
8:1
140
8.0
141
1.0
290
     0
  0
SCALE
  5
57
102
{ACAD_REACTORS
330
47
102
}
330
47
100
AcDbScale
 70
     0
300
10:1
140
10.0
141
1.0
290
     0
  0
SCALE
  5
58
102
{ACAD_REACTORS
330
47
102
}
330
47
100
AcDbScale
 70
     0
300
100:1
140
100.0
141
1.0
290
     0
  0
SCALE
  5
59
102
{ACAD_REACTORS
330
47
102
}
330
47
100
AcDbScale
 70
     0
300
1/128" = 1'-0"
140
0.0078125
141
12.0
290
     0
  0
SCALE
  5
5A
102
{ACAD_REACTORS
330
47
102
}
330
47
100
AcDbScale
 70
     0
300
1/64" = 1'-0"
140
0.015625
141
12.0
290
     0
  0
SCALE
  5
5B
102
{ACAD_REACTORS
330
47
102
}
330
47
100
AcDbScale
 70
     0
300
1/32" = 1'-0"
140
0.03125
141
12.0
290
     0
  0
SCALE
  5
5C
102
{ACAD_REACTORS
330
47
102
}
330
47
100
AcDbScale
 70
     0
300
1/16" = 1'-0"
140
0.0625
141
12.0
290
     0
  0
SCALE
  5
5D
102
{ACAD_REACTORS
330
47
102
}
330
47
100
AcDbScale
 70
     0
300
3/32" = 1'-0"
140
0.09375
141
12.0
290
     0
  0
SCALE
  5
5E
102
{ACAD_REACTORS
330
47
102
}
330
47
100
AcDbScale
 70
     0
300
1/8" = 1'-0"
140
0.125
141
12.0
290
     0
  0
SCALE
  5
5F
102
{ACAD_REACTORS
330
47
102
}
330
47
100
AcDbScale
 70
     0
300
3/16" = 1'-0"
140
0.1875
141
12.0
290
     0
  0
SCALE
  5
60
102
{ACAD_REACTORS
330
47
102
}
330
47
100
AcDbScale
 70
     0
300
1/4" = 1'-0"
140
0.25
141
12.0
290
     0
  0
SCALE
  5
61
102
{ACAD_REACTORS
330
47
102
}
330
47
100
AcDbScale
 70
     0
300
3/8" = 1'-0"
140
0.375
141
12.0
290
     0
  0
SCALE
  5
62
102
{ACAD_REACTORS
330
47
102
}
330
47
100
AcDbScale
 70
     0
300
1/2" = 1'-0"
140
0.5
141
12.0
290
     0
  0
SCALE
  5
63
102
{ACAD_REACTORS
330
47
102
}
330
47
100
AcDbScale
 70
     0
300
3/4" = 1'-0"
140
0.75
141
12.0
290
     0
  0
SCALE
  5
64
102
{ACAD_REACTORS
330
47
102
}
330
47
100
AcDbScale
 70
     0
300
1" = 1'-0"
140
1.0
141
12.0
290
     0
  0
SCALE
  5
65
102
{ACAD_REACTORS
330
47
102
}
330
47
100
AcDbScale
 70
     0
300
1-1/2" = 1'-0"
140
1.5
141
12.0
290
     0
  0
SCALE
  5
66
102
{ACAD_REACTORS
330
47
102
}
330
47
100
AcDbScale
 70
     0
300
3" = 1'-0"
140
3.0
141
12.0
290
     0
  0
SCALE
  5
67
102
{ACAD_REACTORS
330
47
102
}
330
47
100
AcDbScale
 70
     0
300
6" = 1'-0"
140
6.0
141
12.0
290
     0
  0
SCALE
  5
68
102
{ACAD_REACTORS
330
47
102
}
330
47
100
AcDbScale
 70
     0
300
1'-0" = 1'-0"
140
12.0
141
12.0
290
     0
  0
TABLESTYLE
  5
6A
102
{ACAD_REACTORS
330
69
102
}
102
{ACAD_XDICTIONARY
360
B0
102
}
330
69
100
AcDbTableStyle
  3
Standard
 70
     0
 71
     0
 40
0.06
 41
0.06
280
     0
281
     0
  7
Standard
140
4.5
170
     2
 62
     0
 63
   257
283
     0
 90
        4
 91
        0
  1

274
    -2
284
     1
 64
     0
275
    -2
285
     1
 65
     0
276
    -2
286
     1
 66
     0
277
    -2
287
     1
 67
     0
278
    -2
288
     1
 68
     0
279
    -2
289
     1
 69
     0
  7
Standard
140
6.0
170
     5
 62
     0
 63
   257
283
     0
 90
        4
 91
        0
  1

274
    -2
284
     1
 64
     0
275
    -2
285
     1
 65
     0
276
    -2
286
     1
 66
     0
277
    -2
287
     1
 67
     0
278
    -2
288
     1
 68
     0
279
    -2
289
     1
 69
     0
  7
Standard
140
4.5
170
     5
 62
     0
 63
   257
283
     0
 90
        4
 91
        0
  1

274
    -2
284
     1
 64
     0
275
    -2
285
     1
 65
     0
276
    -2
286
     1
 66
     0
277
    -2
287
     1
 67
     0
278
    -2
288
     1
 68
     0
279
    -2
289
     1
 69
     0
  0
VISUALSTYLE
  5
2F
102
{ACAD_REACTORS
330
2A
102
}
330
2A
100
AcDbVisualStyle
  2
2dWireframe
 70
     4
177
     3
291
     0
 70
    58
 90
        0
176
     1
 90
        2
176
     1
 90
        0
176
     1
 90
        0
176
     1
 40
0.6
176
     1
 40
30.0
176
     1
 62
     7
420
 16777215
176
     1
 90
        1
176
     1
 90
        4
176
     1
 62
     7
176
     1
 62
   257
176
     1
 90
        1
176
     1
 90
        1
176
     1
 40
1.0
176
     1
 90
        0
176
     1
 62
   257
176
     1
 40
1.0
176
     1
 90
        1
176
     1
 90
        6
176
     1
 90
        2
176
     1
 62
     7
176
     1
 90
        5
176
     1
 90
        0
176
     1
 90
        0
176
     1
290
     0
176
     1
 90
        1
176
     1
 40
0.0
176
     1
 90
        0
176
     1
290
     1
176
     1
290
     1
176
     1
290
     0
176
     1
290
     0
176
     1
290
     0
176
     1
290
     0
176
     1
290
     0
176
     1
290
     0
176
     1
290
     0
176
     1
 90
       50
176
     1
 40
0.0
176
     1
 40
1.0
176
     1
 90
        0
176
     1
 62
   178
420
        0
176
     1
 90
       50
176
     1
 90
        3
176
     1
 62
     5
420
      255
176
     1
290
     0
176
     1
 90
       50
176
     1
 90
       50
176
     1
 90
       50
176
     1
290
     0
176
     1
 90
       50
176
     1
 62
   256
176
     0
 40
1.0
176
     0
 90
        2
176
     1
  1
strokes_ogs.tif
176
     1
290
     0
176
     1
 40
1.0
176
     1
 40
1.0
176
     1
  0
VISUALSTYLE
  5
32
102
{ACAD_REACTORS
330
2A
102
}
330
2A
100
AcDbVisualStyle
  2
Basic
 70
     7
177
     3
291
     1
 70
    58
 90
        1
176
     1
 90
        0
176
     1
 90
        1
176
     1
 90
        0
176
     1
 40
0.6
176
     1
 40
30.0
176
     1
 62
     7
420
 16777215
176
     1
 90
        0
176
     1
 90
        4
176
     1
 62
     7
176
     1
 62
   257
176
     1
 90
        1
176
     1
 90
        1
176
     1
 40
1.0
176
     1
 90
        8
176
     1
 62
     7
176
     1
 40
1.0
176
     1
 90
        1
176
     1
 90
        6
176
     1
 90
        2
176
     1
 62
     7
176
     1
 90
        5
176
     1
 90
        0
176
     1
 90
        0
176
     1
290
     0
176
     1
 90
        1
176
     1
 40
0.0
176
     1
 90
        0
176
     1
290
     0
176
     1
290
     1
176
     1
290
     1
176
     1
290
     0
176
     1
290
     0
176
     1
290
     0
176
     1
290
     0
176
     1
290
     0
176
     1
290
     0
176
     1
 90
       50
176
     1
 40
0.0
176
     1
 40
1.0
176
     1
 90
        0
176
     1
 62
   178
420
        0
176
     1
 90
       50
176
     1
 90
        3
176
     1
 62
     5
420
      255
176
     1
290
     0
176
     1
 90
       50
176
     1
 90
       50
176
     1
 90
       50
176
     1
290
     0
176
     1
 90
       50
176
     1
 62
   256
176
     0
 40
1.0
176
     0
 90
        2
176
     1
  1
strokes_ogs.tif
176
     1
290
     0
176
     1
 40
1.0
176
     1
 40
1.0
176
     1
  0
VISUALSTYLE
  5
36
102
{ACAD_REACTORS
330
2A
102
}
330
2A
100
AcDbVisualStyle
  2
Brighten
 70
    12
177
     3
291
     1
 70
    58
 90
        2
176
     1
 90
        2
176
     1
 90
        0
176
     1
 90
        0
176
     1
 40
0.6
176
     1
 40
30.0
176
     1
 62
     7
420
 16777215
176
     1
 90
        1
176
     1
 90
        4
176
     1
 62
     7
176
     1
 62
   257
176
     1
 90
        1
176
     1
 90
        1
176
     1
 40
1.0
176
     1
 90
        8
176
     1
 62
     7
176
     1
 40
1.0
176
     1
 90
        1
176
     1
 90
        6
176
     1
 90
        2
176
     1
 62
     7
176
     1
 90
        5
176
     1
 90
        0
176
     1
 90
        0
176
     1
290
     0
176
     1
 90
        1
176
     1
 40
50.0
176
     1
 90
        0
176
     1
290
     0
176
     1
290
     1
176
     1
290
     1
176
     1
290
     0
176
     1
290
     0
176
     1
290
     0
176
     1
290
     0
176
     1
290
     0
176
     1
290
     0
176
     1
 90
       50
176
     1
 40
0.0
176
     1
 40
1.0
176
     1
 90
        0
176
     1
 62
   178
420
        0
176
     1
 90
       50
176
     1
 90
        3
176
     1
 62
     5
420
      255
176
     1
290
     0
176
     1
 90
       50
176
     1
 90
       50
176
     1
 90
       50
176
     1
290
     0
176
     1
 90
       50
176
     1
 62
   256
176
     0
 40
1.0
176
     0
 90
        2
176
     1
  1
strokes_ogs.tif
176
     1
290
     0
176
     1
 40
1.0
176
     1
 40
1.0
176
     1
  0
VISUALSTYLE
  5
3A
102
{ACAD_REACTORS
330
2A
102
}
330
2A
100
AcDbVisualStyle
  2
ColorChange
 70
    16
177
     3
291
     1
 70
    58
 90
        2
176
     1
 90
        2
176
     1
 90
        3
176
     1
 90
        0
176
     1
 40
0.6
176
     1
 40
30.0
176
     1
 62
     8
420
  8421504
176
     1
 90
        1
176
     1
 90
        4
176
     1
 62
     7
176
     1
 62
   257
176
     1
 90
        1
176
     1
 90
        1
176
     1
 40
1.0
176
     1
 90
        8
176
     1
 62
     8
420
  8421504
176
     1
 40
1.0
176
     1
 90
        1
176
     1
 90
        6
176
     1
 90
        2
176
     1
 62
     7
176
     1
 90
        5
176
     1
 90
        0
176
     1
 90
        0
176
     1
290
     0
176
     1
 90
        1
176
     1
 40
0.0
176
     1
 90
        0
176
     1
290
     0
176
     1
290
     1
176
     1
290
     1
176
     1
290
     0
176
     1
290
     0
176
     1
290
     0
176
     1
290
     0
176
     1
290
     0
176
     1
290
     0
176
     1
 90
       50
176
     1
 40
0.0
176
     1
 40
1.0
176
     1
 90
        0
176
     1
 62
   178
420
        0
176
     1
 90
       50
176
     1
 90
        3
176
     1
 62
     5
420
      255
176
     1
290
     0
176
     1
 90
       50
176
     1
 90
       50
176
     1
 90
       50
176
     1
290
     0
176
     1
 90
       50
176
     1
 62
   256
176
     0
 40
1.0
176
     0
 90
        2
176
     1
  1
strokes_ogs.tif
176
     1
290
     0
176
     1
 40
1.0
176
     1
 40
1.0
176
     1
  0
VISUALSTYLE
  5
34
102
{ACAD_REACTORS
330
2A
102
}
330
2A
100
AcDbVisualStyle
  2
Conceptual
 70
     9
177
     3
291
     0
 70
    58
 90
        3
176
     1
 90
        2
176
     1
 90
        0
176
     1
 90
        0
176
     1
 40
0.6
176
     1
 40
30.0
176
     1
 62
     7
420
 16777215
176
     1
 90
        2
176
     1
 90
        2
176
     1
 62
     7
176
     1
 62
   257
176
     1
 90
        1
176
     1
 90
        1
176
     1
 40
179.0
176
     1
 90
        8
176
     1
 62
     7
176
     1
 40
1.0
176
     1
 90
        1
176
     1
 90
        6
176
     1
 90
        2
176
     1
 62
     7
176
     1
 90
        3
176
     1
 90
        0
176
     1
 90
        0
176
     1
290
     0
176
     1
 90
        1
176
     1
 40
0.0
176
     1
 90
        0
176
     1
290
     0
176
     1
290
     1
176
     1
290
     1
176
     1
290
     0
176
     1
290
     0
176
     1
290
     0
176
     1
290
     0
176
     1
290
     0
176
     1
290
     0
176
     1
 90
       50
176
     1
 40
0.0
176
     1
 40
1.0
176
     1
 90
        0
176
     1
 62
   178
420
        0
176
     1
 90
       50
176
     1
 90
        3
176
     1
 62
     5
420
      255
176
     1
290
     0
176
     1
 90
       50
176
     1
 90
       50
176
     1
 90
       50
176
     1
290
     0
176
     1
 90
       50
176
     1
 62
   256
176
     0
 40
1.0
176
     0
 90
        2
176
     1
  1
strokes_ogs.tif
176
     1
290
     0
176
     1
 40
1.0
176
     1
 40
1.0
176
     1
  0
VISUALSTYLE
  5
35
102
{ACAD_REACTORS
330
2A
102
}
330
2A
100
AcDbVisualStyle
  2
Dim
 70
    11
177
     3
291
     1
 70
    58
 90
        2
176
     1
 90
        2
176
     1
 90
        0
176
     1
 90
        0
176
     1
 40
0.6
176
     1
 40
30.0
176
     1
 62
     7
420
 16777215
176
     1
 90
        1
176
     1
 90
        4
176
     1
 62
     7
176
     1
 62
   257
176
     1
 90
        1
176
     1
 90
        1
176
     1
 40
1.0
176
     1
 90
        8
176
     1
 62
     7
176
     1
 40
1.0
176
     1
 90
        1
176
     1
 90
        6
176
     1
 90
        2
176
     1
 62
     7
176
     1
 90
        5
176
     1
 90
        0
176
     1
 90
        0
176
     1
290
     0
176
     1
 90
        1
176
     1
 40
-50.0
176
     1
 90
        0
176
     1
290
     0
176
     1
290
     1
176
     1
290
     1
176
     1
290
     0
176
     1
290
     0
176
     1
290
     0
176
     1
290
     0
176
     1
290
     0
176
     1
290
     0
176
     1
 90
       50
176
     1
 40
0.0
176
     1
 40
1.0
176
     1
 90
        0
176
     1
 62
   178
420
        0
176
     1
 90
       50
176
     1
 90
        3
176
     1
 62
     5
420
      255
176
     1
290
     0
176
     1
 90
       50
176
     1
 90
       50
176
     1
 90
       50
176
     1
290
     0
176
     1
 90
       50
176
     1
 62
   256
176
     0
 40
1.0
176
     0
 90
        2
176
     1
  1
strokes_ogs.tif
176
     1
290
     0
176
     1
 40
1.0
176
     1
 40
1.0
176
     1
  0
VISUALSTYLE
  5
3D
102
{ACAD_REACTORS
330
2A
102
}
330
2A
100
AcDbVisualStyle
  2
EdgeColorOff
 70
    22
177
     3
291
     1
 70
    58
 90
        2
176
     0
 90
        2
176
     0
 90
        0
176
     0
 90
        0
176
     0
 40
0.6
176
     0
 40
30.0
176
     0
 62
     7
420
 16777215
176
     0
 90
        1
176
     0
 90
        4
176
     0
 62
     7
176
     0
 62
   257
176
     0
 90
        1
176
     0
 90
        1
176
     0
 40
1.0
176
     0
 90
        8
176
     2
 62
     7
176
     0
 40
1.0
176
     0
 90
        1
176
     0
 90
        6
176
     0
 90
        2
176
     0
 62
     7
176
     0
 90
        5
176
     0
 90
        0
176
     0
 90
        0
176
     0
290
     0
176
     0
 90
        1
176
     0
 40
0.0
176
     0
 90
        0
176
     0
290
     0
176
     0
290
     1
176
     0
290
     1
176
     0
290
     0
176
     0
290
     0
176
     0
290
     0
176
     0
290
     0
176
     0
290
     0
176
     0
290
     0
176
     0
 90
       50
176
     0
 40
0.0
176
     0
 40
1.0
176
     0
 90
        0
176
     0
 62
   178
420
        0
176
     0
 90
       50
176
     0
 90
        3
176
     0
 62
     5
420
      255
176
     0
290
     0
176
     0
 90
       50
176
     0
 90
       50
176
     0
 90
       50
176
     0
290
     0
176
     0
 90
       50
176
     0
 62
   256
176
     0
 40
1.0
176
     0
 90
        2
176
     0
  1
strokes_ogs.tif
176
     0
290
     0
176
     0
 40
1.0
176
     0
 40
1.0
176
     0
  0
VISUALSTYLE
  5
39
102
{ACAD_REACTORS
330
2A
102
}
330
2A
100
AcDbVisualStyle
  2
Facepattern
 70
    15
177
     3
291
     1
 70
    58
 90
        2
176
     1
 90
        2
176
     1
 90
        0
176
     1
 90
        0
176
     1
 40
0.6
176
     1
 40
30.0
176
     1
 62
     7
420
 16777215
176
     1
 90
        1
176
     1
 90
        4
176
     1
 62
     7
176
     1
 62
   257
176
     1
 90
        1
176
     1
 90
        1
176
     1
 40
1.0
176
     1
 90
        8
176
     1
 62
     7
176
     1
 40
1.0
176
     1
 90
        1
176
     1
 90
        6
176
     1
 90
        2
176
     1
 62
     7
176
     1
 90
        5
176
     1
 90
        0
176
     1
 90
        0
176
     1
290
     0
176
     1
 90
        1
176
     1
 40
0.0
176
     1
 90
        0
176
     1
290
     0
176
     1
290
     1
176
     1
290
     1
176
     1
290
     0
176
     1
290
     0
176
     1
290
     0
176
     1
290
     0
176
     1
290
     0
176
     1
290
     0
176
     1
 90
       50
176
     1
 40
0.0
176
     1
 40
1.0
176
     1
 90
        0
176
     1
 62
   178
420
        0
176
     1
 90
       50
176
     1
 90
        3
176
     1
 62
     5
420
      255
176
     1
290
     0
176
     1
 90
       50
176
     1
 90
       50
176
     1
 90
       50
176
     1
290
     0
176
     1
 90
       50
176
     1
 62
   256
176
     0
 40
1.0
176
     0
 90
        2
176
     1
  1
strokes_ogs.tif
176
     1
290
     0
176
     1
 40
1.0
176
     1
 40
1.0
176
     1
  0
VISUALSTYLE
  5
2B
102
{ACAD_REACTORS
330
2A
102
}
330
2A
100
AcDbVisualStyle
  2
Flat
 70
     0
177
     3
291
     1
 70
    58
 90
        2
176
     1
 90
        1
176
     1
 90
        1
176
     1
 90
        2
176
     1
 40
0.6
176
     1
 40
30.0
176
     1
 62
     7
420
 16777215
176
     1
 90
        0
176
     1
 90
        0
176
     1
 62
     7
176
     1
 62
   257
176
     1
 90
        1
176
     1
 90
        1
176
     1
 40
1.0
176
     1
 90
        8
176
     1
 62
     7
176
     1
 40
1.0
176
     1
 90
        1
176
     1
 90
        6
176
     1
 90
        2
176
     1
 62
     7
176
     1
 90
        5
176
     1
 90
        0
176
     1
 90
        0
176
     1
290
     0
176
     1
 90
       13
176
     1
 40
0.0
176
     1
 90
        0
176
     1
290
     0
176
     1
290
     1
176
     1
290
     1
176
     1
290
     0
176
     1
290
     0
176
     1
290
     0
176
     1
290
     0
176
     1
290
     0
176
     1
290
     0
176
     1
 90
       50
176
     1
 40
0.0
176
     1
 40
1.0
176
     1
 90
        0
176
     1
 62
   178
420
        0
176
     1
 90
       50
176
     1
 90
        3
176
     1
 62
     5
420
      255
176
     1
290
     0
176
     1
 90
       50
176
     1
 90
       50
176
     1
 90
       50
176
     1
290
     0
176
     1
 90
       50
176
     1
 62
   256
176
     0
 40
1.0
176
     0
 90
        2
176
     1
  1
strokes_ogs.tif
176
     1
290
     0
176
     1
 40
1.0
176
     1
 40
1.0
176
     1
  0
VISUALSTYLE
  5
2C
102
{ACAD_REACTORS
330
2A
102
}
330
2A
100
AcDbVisualStyle
  2
FlatWithEdges
 70
     1
177
     3
291
     1
 70
    58
 90
        2
176
     1
 90
        1
176
     1
 90
        1
176
     1
 90
        2
176
     1
 40
0.6
176
     1
 40
30.0
176
     1
 62
     7
420
 16777215
176
     1
 90
        1
176
     1
 90
        0
176
     1
 62
     7
176
     1
 62
   257
176
     1
 90
        1
176
     1
 90
        1
176
     1
 40
1.0
176
     1
 90
        0
176
     1
 62
   257
176
     1
 40
1.0
176
     1
 90
        1
176
     1
 90
        6
176
     1
 90
        2
176
     1
 62
     7
176
     1
 90
        5
176
     1
 90
        0
176
     1
 90
        0
176
     1
290
     0
176
     1
 90
       13
176
     1
 40
0.0
176
     1
 90
        0
176
     1
290
     0
176
     1
290
     1
176
     1
290
     1
176
     1
290
     0
176
     1
290
     0
176
     1
290
     0
176
     1
290
     0
176
     1
290
     0
176
     1
290
     0
176
     1
 90
       50
176
     1
 40
0.0
176
     1
 40
1.0
176
     1
 90
        0
176
     1
 62
   178
420
        0
176
     1
 90
       50
176
     1
 90
        3
176
     1
 62
     5
420
      255
176
     1
290
     0
176
     1
 90
       50
176
     1
 90
       50
176
     1
 90
       50
176
     1
290
     0
176
     1
 90
       50
176
     1
 62
   256
176
     0
 40
1.0
176
     0
 90
        2
176
     1
  1
strokes_ogs.tif
176
     1
290
     0
176
     1
 40
1.0
176
     1
 40
1.0
176
     1
  0
VISUALSTYLE
  5
2D
102
{ACAD_REACTORS
330
2A
102
}
330
2A
100
AcDbVisualStyle
  2
Gouraud
 70
     2
177
     3
291
     1
 70
    58
 90
        2
176
     1
 90
        2
176
     1
 90
        1
176
     1
 90
        2
176
     1
 40
0.6
176
     1
 40
30.0
176
     1
 62
     7
420
 16777215
176
     1
 90
        0
176
     1
 90
        0
176
     1
 62
     7
176
     1
 62
   257
176
     1
 90
        1
176
     1
 90
        1
176
     1
 40
1.0
176
     1
 90
        0
176
     1
 62
     7
176
     1
 40
1.0
176
     1
 90
        1
176
     1
 90
        6
176
     1
 90
        2
176
     1
 62
     7
176
     1
 90
        5
176
     1
 90
        0
176
     1
 90
        0
176
     1
290
     0
176
     1
 90
       13
176
     1
 40
0.0
176
     1
 90
        0
176
     1
290
     0
176
     1
290
     1
176
     1
290
     1
176
     1
290
     0
176
     1
290
     0
176
     1
290
     0
176
     1
290
     0
176
     1
290
     0
176
     1
290
     0
176
     1
 90
       50
176
     1
 40
0.0
176
     1
 40
1.0
176
     1
 90
        0
176
     1
 62
   178
420
        0
176
     1
 90
       50
176
     1
 90
        3
176
     1
 62
     5
420
      255
176
     1
290
     0
176
     1
 90
       50
176
     1
 90
       50
176
     1
 90
       50
176
     1
290
     0
176
     1
 90
       50
176
     1
 62
   256
176
     0
 40
1.0
176
     0
 90
        2
176
     1
  1
strokes_ogs.tif
176
     1
290
     0
176
     1
 40
1.0
176
     1
 40
1.0
176
     1
  0
VISUALSTYLE
  5
2E
102
{ACAD_REACTORS
330
2A
102
}
330
2A
100
AcDbVisualStyle
  2
GouraudWithEdges
 70
     3
177
     3
291
     1
 70
    58
 90
        2
176
     1
 90
        2
176
     1
 90
        1
176
     1
 90
        2
176
     1
 40
0.6
176
     1
 40
30.0
176
     1
 62
     7
420
 16777215
176
     1
 90
        1
176
     1
 90
        0
176
     1
 62
     7
176
     1
 62
   257
176
     1
 90
        1
176
     1
 90
        1
176
     1
 40
1.0
176
     1
 90
        0
176
     1
 62
   257
176
     1
 40
1.0
176
     1
 90
        1
176
     1
 90
        6
176
     1
 90
        2
176
     1
 62
     7
176
     1
 90
        5
176
     1
 90
        0
176
     1
 90
        0
176
     1
290
     0
176
     1
 90
       13
176
     1
 40
0.0
176
     1
 90
        0
176
     1
290
     0
176
     1
290
     1
176
     1
290
     1
176
     1
290
     0
176
     1
290
     0
176
     1
290
     0
176
     1
290
     0
176
     1
290
     0
176
     1
290
     0
176
     1
 90
       50
176
     1
 40
0.0
176
     1
 40
1.0
176
     1
 90
        0
176
     1
 62
   178
420
        0
176
     1
 90
       50
176
     1
 90
        3
176
     1
 62
     5
420
      255
176
     1
290
     0
176
     1
 90
       50
176
     1
 90
       50
176
     1
 90
       50
176
     1
290
     0
176
     1
 90
       50
176
     1
 62
   256
176
     0
 40
1.0
176
     0
 90
        2
176
     1
  1
strokes_ogs.tif
176
     1
290
     0
176
     1
 40
1.0
176
     1
 40
1.0
176
     1
  0
VISUALSTYLE
  5
31
102
{ACAD_REACTORS
330
2A
102
}
330
2A
100
AcDbVisualStyle
  2
Hidden
 70
     6
177
     3
291
     0
 70
    58
 90
        1
176
     1
 90
        2
176
     1
 90
        2
176
     1
 90
        0
176
     1
 40
0.6
176
     1
 40
30.0
176
     1
 62
     7
420
 16777215
176
     1
 90
        2
176
     1
 90
        2
176
     1
 62
     7
176
     1
 62
   257
176
     1
 90
        2
176
     1
 90
        1
176
     1
 40
40.0
176
     1
 90
        0
176
     1
 62
   257
176
     1
 40
1.0
176
     1
 90
        1
176
     1
 90
        6
176
     1
 90
        2
176
     1
 62
     7
176
     1
 90
        3
176
     1
 90
        0
176
     1
 90
        0
176
     1
290
     0
176
     1
 90
        1
176
     1
 40
0.0
176
     1
 90
        0
176
     1
290
     0
176
     1
290
     1
176
     1
290
     1
176
     1
290
     0
176
     1
290
     0
176
     1
290
     0
176
     1
290
     0
176
     1
290
     0
176
     1
290
     0
176
     1
 90
       50
176
     1
 40
0.0
176
     1
 40
1.0
176
     1
 90
        0
176
     1
 62
   178
420
        0
176
     1
 90
       50
176
     1
 90
        3
176
     1
 62
     5
420
      255
176
     1
290
     0
176
     1
 90
       50
176
     1
 90
       50
176
     1
 90
       50
176
     1
290
     0
176
     1
 90
       50
176
     1
 62
   256
176
     0
 40
1.0
176
     0
 90
        2
176
     1
  1
strokes_ogs.tif
176
     1
290
     0
176
     1
 40
1.0
176
     1
 40
1.0
176
     1
  0
VISUALSTYLE
  5
3B
102
{ACAD_REACTORS
330
2A
102
}
330
2A
100
AcDbVisualStyle
  2
JitterOff
 70
    20
177
     3
291
     1
 70
    58
 90
        2
176
     0
 90
        2
176
     0
 90
        0
176
     0
 90
        0
176
     0
 40
0.6
176
     0
 40
30.0
176
     0
 62
     7
420
 16777215
176
     0
 90
        1
176
     0
 90
        4
176
     0
 62
     7
176
     0
 62
   257
176
     0
 90
        1
176
     0
 90
        1
176
     0
 40
1.0
176
     0
 90
       10
176
     2
 62
     7
176
     0
 40
1.0
176
     0
 90
        1
176
     0
 90
        6
176
     0
 90
        2
176
     0
 62
     7
176
     0
 90
        5
176
     0
 90
        0
176
     0
 90
        0
176
     0
290
     0
176
     0
 90
        1
176
     0
 40
0.0
176
     0
 90
        0
176
     0
290
     0
176
     0
290
     1
176
     0
290
     1
176
     0
290
     0
176
     0
290
     0
176
     0
290
     0
176
     0
290
     0
176
     0
290
     0
176
     0
290
     0
176
     0
 90
       50
176
     0
 40
0.0
176
     0
 40
1.0
176
     0
 90
        0
176
     0
 62
   178
420
        0
176
     0
 90
       50
176
     0
 90
        3
176
     0
 62
     5
420
      255
176
     0
290
     0
176
     0
 90
       50
176
     0
 90
       50
176
     0
 90
       50
176
     0
290
     0
176
     0
 90
       50
176
     0
 62
   256
176
     0
 40
1.0
176
     0
 90
        2
176
     0
  1
strokes_ogs.tif
176
     0
290
     0
176
     0
 40
1.0
176
     0
 40
1.0
176
     0
  0
VISUALSTYLE
  5
38
102
{ACAD_REACTORS
330
2A
102
}
330
2A
100
AcDbVisualStyle
  2
Linepattern
 70
    14
177
     3
291
     1
 70
    58
 90
        2
176
     1
 90
        2
176
     1
 90
        0
176
     1
 90
        0
176
     1
 40
0.6
176
     1
 40
30.0
176
     1
 62
     7
420
 16777215
176
     1
 90
        1
176
     1
 90
        4
176
     1
 62
     7
176
     1
 62
   257
176
     1
 90
        7
176
     1
 90
        7
176
     1
 40
1.0
176
     1
 90
        8
176
     1
 62
     7
176
     1
 40
1.0
176
     1
 90
        1
176
     1
 90
        6
176
     1
 90
        2
176
     1
 62
     7
176
     1
 90
        5
176
     1
 90
        0
176
     1
 90
        0
176
     1
290
     0
176
     1
 90
        1
176
     1
 40
0.0
176
     1
 90
        0
176
     1
290
     0
176
     1
290
     1
176
     1
290
     1
176
     1
290
     0
176
     1
290
     0
176
     1
290
     0
176
     1
290
     0
176
     1
290
     0
176
     1
290
     0
176
     1
 90
       50
176
     1
 40
0.0
176
     1
 40
1.0
176
     1
 90
        0
176
     1
 62
   178
420
        0
176
     1
 90
       50
176
     1
 90
        3
176
     1
 62
     5
420
      255
176
     1
290
     0
176
     1
 90
       50
176
     1
 90
       50
176
     1
 90
       50
176
     1
290
     0
176
     1
 90
       50
176
     1
 62
   256
176
     0
 40
1.0
176
     0
 90
        2
176
     1
  1
strokes_ogs.tif
176
     1
290
     0
176
     1
 40
1.0
176
     1
 40
1.0
176
     1
  0
VISUALSTYLE
  5
3C
102
{ACAD_REACTORS
330
2A
102
}
330
2A
100
AcDbVisualStyle
  2
OverhangOff
 70
    21
177
     3
291
     1
 70
    58
 90
        2
176
     0
 90
        2
176
     0
 90
        0
176
     0
 90
        0
176
     0
 40
0.6
176
     0
 40
30.0
176
     0
 62
     7
420
 16777215
176
     0
 90
        1
176
     0
 90
        4
176
     0
 62
     7
176
     0
 62
   257
176
     0
 90
        1
176
     0
 90
        1
176
     0
 40
1.0
176
     0
 90
        9
176
     2
 62
     7
176
     0
 40
1.0
176
     0
 90
        1
176
     0
 90
        6
176
     0
 90
        2
176
     0
 62
     7
176
     0
 90
        5
176
     0
 90
        0
176
     0
 90
        0
176
     0
290
     0
176
     0
 90
        1
176
     0
 40
0.0
176
     0
 90
        0
176
     0
290
     0
176
     0
290
     1
176
     0
290
     1
176
     0
290
     0
176
     0
290
     0
176
     0
290
     0
176
     0
290
     0
176
     0
290
     0
176
     0
290
     0
176
     0
 90
       50
176
     0
 40
0.0
176
     0
 40
1.0
176
     0
 90
        0
176
     0
 62
   178
420
        0
176
     0
 90
       50
176
     0
 90
        3
176
     0
 62
     5
420
      255
176
     0
290
     0
176
     0
 90
       50
176
     0
 90
       50
176
     0
 90
       50
176
     0
290
     0
176
     0
 90
       50
176
     0
 62
   256
176
     0
 40
1.0
176
     0
 90
        2
176
     0
  1
strokes_ogs.tif
176
     0
290
     0
176
     0
 40
1.0
176
     0
 40
1.0
176
     0
  0
VISUALSTYLE
  5
33
102
{ACAD_REACTORS
330
2A
102
}
330
2A
100
AcDbVisualStyle
  2
Realistic
 70
     8
177
     3
291
     0
 70
    58
 90
        2
176
     1
 90
        3
176
     1
 90
        0
176
     1
 90
        2
176
     1
 40
0.6
176
     1
 40
30.0
176
     1
 62
     7
420
 16777215
176
     1
 90
        0
176
     1
 90
        0
176
     1
 62
     7
176
     1
 62
   257
176
     1
 90
        1
176
     1
 90
        1
176
     1
 40
1.0
176
     1
 90
        8
176
     1
 62
   257
176
     1
 40
1.0
176
     1
 90
        1
176
     1
 90
        6
176
     1
 90
        2
176
     1
 62
     7
176
     1
 90
        3
176
     1
 90
        0
176
     1
 90
        0
176
     1
290
     0
176
     1
 90
       13
176
     1
 40
0.0
176
     1
 90
        0
176
     1
290
     0
176
     1
290
     1
176
     1
290
     1
176
     1
290
     0
176
     1
290
     0
176
     1
290
     0
176
     1
290
     0
176
     1
290
     0
176
     1
290
     0
176
     1
 90
       50
176
     1
 40
0.0
176
     1
 40
1.0
176
     1
 90
        0
176
     1
 62
   178
420
        0
176
     1
 90
       50
176
     1
 90
        3
176
     1
 62
     5
420
      255
176
     1
290
     0
176
     1
 90
       50
176
     1
 90
       50
176
     1
 90
       50
176
     1
290
     0
176
     1
 90
       50
176
     1
 62
   256
176
     0
 40
1.0
176
     0
 90
        2
176
     1
  1
strokes_ogs.tif
176
     1
290
     0
176
     1
 40
1.0
176
     1
 40
1.0
176
     1
  0
VISUALSTYLE
  5
42
102
{ACAD_REACTORS
330
2A
102
}
330
2A
100
AcDbVisualStyle
  2
Shaded
 70
    27
177
     3
291
     0
 70
    58
 90
        2
176
     1
 90
        2
176
     1
 90
        1
176
     1
 90
        2
176
     1
 40
0.6
176
     1
 40
30.0
176
     1
 62
     7
420
 16777215
176
     1
 90
        0
176
     1
 90
        4
176
     1
 62
     7
176
     1
 62
   257
176
     1
 90
        1
176
     1
 90
        1
176
     1
 40
1.0
176
     1
 90
        8
176
     1
 62
   257
176
     1
 40
1.0
176
     1
 90
        1
176
     1
 90
        6
176
     1
 90
        2
176
     1
 62
     8
420
  7895160
176
     1
 90
        3
176
     1
 90
        0
176
     1
 90
        0
176
     1
290
     0
176
     1
 90
        5
176
     1
 40
0.0
176
     1
 90
        0
176
     1
290
     0
176
     1
290
     1
176
     1
290
     1
176
     1
290
     0
176
     1
290
     0
176
     1
290
     0
176
     1
290
     0
176
     1
290
     0
176
     1
290
     0
176
     1
 90
       50
176
     1
 40
0.0
176
     1
 40
1.0
176
     1
 90
        0
176
     1
 62
   178
420
        0
176
     1
 90
       50
176
     1
 90
        3
176
     1
 62
     5
420
      255
176
     1
290
     0
176
     1
 90
       50
176
     1
 90
       50
176
     1
 90
       50
176
     1
290
     0
176
     1
 90
       50
176
     1
 62
   256
176
     0
 40
1.0
176
     0
 90
        2
176
     1
  1
strokes_ogs.tif
176
     1
290
     0
176
     1
 40
1.0
176
     1
 40
1.0
176
     1
  0
VISUALSTYLE
  5
41
102
{ACAD_REACTORS
330
2A
102
}
330
2A
100
AcDbVisualStyle
  2
Shaded with edges
 70
    26
177
     3
291
     0
 70
    58
 90
        2
176
     1
 90
        2
176
     1
 90
        1
176
     1
 90
        2
176
     1
 40
0.6
176
     1
 40
30.0
176
     1
 62
     7
420
 16777215
176
     1
 90
        1
176
     1
 90
       10
176
     1
 62
     7
176
     1
 62
   257
176
     1
 90
        2
176
     1
 90
        1
176
     1
 40
1.0
176
     1
 90
        8
176
     1
 62
   257
176
     1
 40
1.0
176
     1
 90
        1
176
     1
 90
        6
176
     1
 90
        2
176
     1
 62
     7
176
     1
 90
        3
176
     1
 90
        0
176
     1
 90
        0
176
     1
290
     0
176
     1
 90
        5
176
     1
 40
0.0
176
     1
 90
        0
176
     1
290
     0
176
     1
290
     1
176
     1
290
     1
176
     1
290
     0
176
     1
290
     0
176
     1
290
     0
176
     1
290
     0
176
     1
290
     0
176
     1
290
     0
176
     1
 90
       50
176
     1
 40
0.0
176
     1
 40
1.0
176
     1
 90
        0
176
     1
 62
   178
420
        0
176
     1
 90
       50
176
     1
 90
        3
176
     1
 62
     5
420
      255
176
     1
290
     0
176
     1
 90
       50
176
     1
 90
       50
176
     1
 90
       50
176
     1
290
     0
176
     1
 90
       50
176
     1
 62
   256
176
     0
 40
1.0
176
     0
 90
        2
176
     1
  1
strokes_ogs.tif
176
     1
290
     0
176
     1
 40
1.0
176
     1
 40
1.0
176
     1
  0
VISUALSTYLE
  5
3E
102
{ACAD_REACTORS
330
2A
102
}
330
2A
100
AcDbVisualStyle
  2
Shades of Gray
 70
    23
177
     3
291
     0
 70
    58
 90
        2
176
     1
 90
        2
176
     1
 90
        3
176
     1
 90
        0
176
     1
 40
0.6
176
     1
 40
30.0
176
     1
 62
     7
420
 16777215
176
     1
 90
        2
176
     1
 90
        2
176
     1
 62
     7
176
     1
 62
     7
176
     1
 90
        1
176
     1
 90
        1
176
     1
 40
40.0
176
     1
 90
        8
176
     1
 62
     7
176
     1
 40
1.0
176
     1
 90
        1
176
     1
 90
        6
176
     1
 90
        2
176
     1
 62
     7
176
     1
 90
        3
176
     1
 90
        0
176
     1
 90
        0
176
     1
290
     0
176
     1
 90
        1
176
     1
 40
0.0
176
     1
 90
        0
176
     1
290
     0
176
     1
290
     1
176
     1
290
     1
176
     1
290
     0
176
     1
290
     0
176
     1
290
     0
176
     1
290
     0
176
     1
290
     0
176
     1
290
     0
176
     1
 90
       50
176
     1
 40
0.0
176
     1
 40
1.0
176
     1
 90
        0
176
     1
 62
   178
420
        0
176
     1
 90
       50
176
     1
 90
        3
176
     1
 62
     5
420
      255
176
     1
290
     0
176
     1
 90
       50
176
     1
 90
       50
176
     1
 90
       50
176
     1
290
     0
176
     1
 90
       50
176
     1
 62
   256
176
     0
 40
1.0
176
     0
 90
        2
176
     1
  1
strokes_ogs.tif
176
     1
290
     0
176
     1
 40
1.0
176
     1
 40
1.0
176
     1
  0
VISUALSTYLE
  5
3F
102
{ACAD_REACTORS
330
2A
102
}
330
2A
100
AcDbVisualStyle
  2
Sketchy
 70
    24
177
     3
291
     0
 70
    58
 90
        1
176
     1
 90
        2
176
     1
 90
        2
176
     1
 90
        0
176
     1
 40
0.6
176
     1
 40
30.0
176
     1
 62
     7
420
 16777215
176
     1
 90
        2
176
     1
 90
        2
176
     1
 62
     7
176
     1
 62
     7
176
     1
 90
        1
176
     1
 90
        1
176
     1
 40
40.0
176
     1
 90
       11
176
     1
 62
     7
176
     1
 40
1.0
176
     1
 90
        1
176
     1
 90
        6
176
     1
 90
        2
176
     1
 62
     7
176
     1
 90
        6
176
     1
 90
        0
176
     1
 90
        0
176
     1
290
     0
176
     1
 90
        1
176
     1
 40
0.0
176
     1
 90
        0
176
     1
290
     0
176
     1
290
     1
176
     1
290
     1
176
     1
290
     0
176
     1
290
     0
176
     1
290
     0
176
     1
290
     0
176
     1
290
     0
176
     1
290
     0
176
     1
 90
       50
176
     1
 40
0.0
176
     1
 40
1.0
176
     1
 90
        0
176
     1
 62
   178
420
        0
176
     1
 90
       50
176
     1
 90
        3
176
     1
 62
     5
420
      255
176
     1
290
     0
176
     1
 90
       50
176
     1
 90
       50
176
     1
 90
       50
176
     1
290
     0
176
     1
 90
       50
176
     1
 62
   256
176
     0
 40
1.0
176
     0
 90
        2
176
     1
  1
strokes_ogs.tif
176
     1
290
     0
176
     1
 40
1.0
176
     1
 40
1.0
176
     1
  0
VISUALSTYLE
  5
37
102
{ACAD_REACTORS
330
2A
102
}
330
2A
100
AcDbVisualStyle
  2
Thicken
 70
    13
177
     3
291
     1
 70
    58
 90
        2
176
     1
 90
        2
176
     1
 90
        0
176
     1
 90
        0
176
     1
 40
0.6
176
     1
 40
30.0
176
     1
 62
     7
420
 16777215
176
     1
 90
        1
176
     1
 90
        4
176
     1
 62
     7
176
     1
 62
   257
176
     1
 90
        1
176
     1
 90
        1
176
     1
 40
1.0
176
     1
 90
       12
176
     1
 62
     7
176
     1
 40
1.0
176
     1
 90
        1
176
     1
 90
        6
176
     1
 90
        2
176
     1
 62
     7
176
     1
 90
        5
176
     1
 90
        0
176
     1
 90
        0
176
     1
290
     0
176
     1
 90
        1
176
     1
 40
0.0
176
     1
 90
        0
176
     1
290
     0
176
     1
290
     1
176
     1
290
     1
176
     1
290
     0
176
     1
290
     0
176
     1
290
     0
176
     1
290
     0
176
     1
290
     0
176
     1
290
     0
176
     1
 90
       50
176
     1
 40
0.0
176
     1
 40
1.0
176
     1
 90
        0
176
     1
 62
   178
420
        0
176
     1
 90
       50
176
     1
 90
        3
176
     1
 62
     5
420
      255
176
     1
290
     0
176
     1
 90
       50
176
     1
 90
       50
176
     1
 90
       50
176
     1
290
     0
176
     1
 90
       50
176
     1
 62
   256
176
     0
 40
1.0
176
     0
 90
        2
176
     1
  1
strokes_ogs.tif
176
     1
290
     0
176
     1
 40
1.0
176
     1
 40
1.0
176
     1
  0
VISUALSTYLE
  5
30
102
{ACAD_REACTORS
330
2A
102
}
330
2A
100
AcDbVisualStyle
  2
Wireframe
 70
     5
177
     3
291
     0
 70
    58
 90
        0
176
     1
 90
        2
176
     1
 90
        0
176
     1
 90
        0
176
     1
 40
0.6
176
     1
 40
30.0
176
     1
 62
     7
420
 16777215
176
     1
 90
        1
176
     1
 90
        4
176
     1
 62
     7
176
     1
 62
   257
176
     1
 90
        1
176
     1
 90
        1
176
     1
 40
1.0
176
     1
 90
        0
176
     1
 62
   257
176
     1
 40
1.0
176
     1
 90
        1
176
     1
 90
        6
176
     1
 90
        2
176
     1
 62
     7
176
     1
 90
        3
176
     1
 90
        0
176
     1
 90
        0
176
     1
290
     0
176
     1
 90
        1
176
     1
 40
0.0
176
     1
 90
        0
176
     1
290
     0
176
     1
290
     1
176
     1
290
     1
176
     1
290
     0
176
     1
290
     0
176
     1
290
     0
176
     1
290
     0
176
     1
290
     0
176
     1
290
     0
176
     1
 90
       50
176
     1
 40
0.0
176
     1
 40
1.0
176
     1
 90
        0
176
     1
 62
   178
420
        0
176
     1
 90
       50
176
     1
 90
        3
176
     1
 62
     5
420
      255
176
     1
290
     0
176
     1
 90
       50
176
     1
 90
       50
176
     1
 90
       50
176
     1
290
     0
176
     1
 90
       50
176
     1
 62
   256
176
     0
 40
1.0
176
     0
 90
        2
176
     1
  1
strokes_ogs.tif
176
     1
290
     0
176
     1
 40
1.0
176
     1
 40
1.0
176
     1
  0
VISUALSTYLE
  5
40
102
{ACAD_REACTORS
330
2A
102
}
330
2A
100
AcDbVisualStyle
  2
X-Ray
 70
    25
177
     3
291
     0
 70
    58
 90
        2
176
     1
 90
        2
176
     1
 90
        1
176
     1
 90
        1
176
     1
 40
0.5
176
     1
 40
30.0
176
     1
 62
     7
420
 16777215
176
     1
 90
        1
176
     1
 90
        0
176
     1
 62
     7
176
     1
 62
   257
176
     1
 90
        1
176
     1
 90
        1
176
     1
 40
1.0
176
     1
 90
        8
176
     1
 62
     7
176
     1
 40
1.0
176
     1
 90
        1
176
     1
 90
        6
176
     1
 90
        2
176
     1
 62
     7
176
     1
 90
        3
176
     1
 90
        0
176
     1
 90
        0
176
     1
290
     0
176
     1
 90
       13
176
     1
 40
0.0
176
     1
 90
        0
176
     1
290
     0
176
     1
290
     1
176
     1
290
     1
176
     1
290
     0
176
     1
290
     0
176
     1
290
     0
176
     1
290
     0
176
     1
290
     0
176
     1
290
     0
176
     1
 90
       50
176
     1
 40
0.0
176
     1
 40
1.0
176
     1
 90
        0
176
     1
 62
   178
420
        0
176
     1
 90
       50
176
     1
 90
        3
176
     1
 62
     5
420
      255
176
     1
290
     0
176
     1
 90
       50
176
     1
 90
       50
176
     1
 90
       50
176
     1
290
     0
176
     1
 90
       50
176
     1
 62
   256
176
     0
 40
1.0
176
     0
 90
        2
176
     1
  1
strokes_ogs.tif
176
     1
290
     0
176
     1
 40
1.0
176
     1
 40
1.0
176
     1
  0
DICTIONARYVAR
  5
AF
102
{ACAD_REACTORS
330
AE
102
}
330
AE
100
DictionaryVariables
280
     0
  1
1:1
  0
DICTIONARYVAR
  5
B7
102
{ACAD_REACTORS
330
AE
102
}
330
AE
100
DictionaryVariables
280
     0
  1
3.500000
  0
DICTIONARYVAR
  5
B8
102
{ACAD_REACTORS
330
AE
102
}
330
AE
100
DictionaryVariables
280
     0
  1
acadiso.lin
  0
DICTIONARYVAR
  5
B4
102
{ACAD_REACTORS
330
AE
102
}
330
AE
100
DictionaryVariables
280
     0
  1
Standard
  0
DICTIONARYVAR
  5
B3
102
{ACAD_REACTORS
330
AE
102
}
330
AE
100
DictionaryVariables
280
     0
  1
Standard
  0
DICTIONARY
  5
B0
330
6A
100
AcDbDictionary
280
     1
281
     1
  3
ACAD_ROUNDTRIP_2008_TABLESTYLE_CELLSTYLEMAP
360
B1
  0
CELLSTYLEMAP
  5
B1
102
{ACAD_REACTORS
330
B0
102
}
330
B0
100
AcDbCellStyleMap
 90
        3
300
CELLSTYLE
  1
TABLEFORMAT_BEGIN
 90
        5
170
     1
 91
        0
 92
    32768
 62
   257
 93
        1
300
CONTENTFORMAT
  1
CONTENTFORMAT_BEGIN
 90
        0
 91
        0
 92
        4
 93
        0
300

 40
0.0
140
1.0
 94
        5
 62
     0
340
11
144
6.0
309
CONTENTFORMAT_END
171
     1
301
MARGIN
  1
CELLMARGIN_BEGIN
 40
1.5
 40
1.5
 40
1.5
 40
1.5
 40
1.5
 40
1.5
309
CELLMARGIN_END
 94
        6
 95
        1
302
GRIDFORMAT
  1
GRIDFORMAT_BEGIN
 90
        0
 91
        1
 62
     0
 92
       -2
340
14
 93
        0
 40
0.045
309
GRIDFORMAT_END
 95
        2
302
GRIDFORMAT
  1
GRIDFORMAT_BEGIN
 90
        0
 91
        1
 62
     0
 92
       -2
340
14
 93
        0
 40
0.045
309
GRIDFORMAT_END
 95
        4
302
GRIDFORMAT
  1
GRIDFORMAT_BEGIN
 90
        0
 91
        1
 62
     0
 92
       -2
340
14
 93
        0
 40
0.045
309
GRIDFORMAT_END
 95
        8
302
GRIDFORMAT
  1
GRIDFORMAT_BEGIN
 90
        0
 91
        1
 62
     0
 92
       -2
340
14
 93
        0
 40
0.045
309
GRIDFORMAT_END
 95
       16
302
GRIDFORMAT
  1
GRIDFORMAT_BEGIN
 90
        0
 91
        1
 62
     0
 92
       -2
340
14
 93
        0
 40
0.045
309
GRIDFORMAT_END
 95
       32
302
GRIDFORMAT
  1
GRIDFORMAT_BEGIN
 90
        0
 91
        1
 62
     0
 92
       -2
340
14
 93
        0
 40
0.045
309
GRIDFORMAT_END
309
TABLEFORMAT_END
  1
CELLSTYLE_BEGIN
 90
        1
 91
        1
300
_TITLE
309
CELLSTYLE_END
300
CELLSTYLE
  1
TABLEFORMAT_BEGIN
 90
        5
170
     1
 91
        0
 92
        0
 62
   257
 93
        1
300
CONTENTFORMAT
  1
CONTENTFORMAT_BEGIN
 90
        0
 91
        0
 92
        4
 93
        0
300

 40
0.0
140
1.0
 94
        5
 62
     0
340
11
144
4.5
309
CONTENTFORMAT_END
171
     1
301
MARGIN
  1
CELLMARGIN_BEGIN
 40
1.5
 40
1.5
 40
1.5
 40
1.5
 40
1.5
 40
1.5
309
CELLMARGIN_END
 94
        6
 95
        1
302
GRIDFORMAT
  1
GRIDFORMAT_BEGIN
 90
        0
 91
        1
 62
     0
 92
       -2
340
14
 93
        0
 40
0.045
309
GRIDFORMAT_END
 95
        2
302
GRIDFORMAT
  1
GRIDFORMAT_BEGIN
 90
        0
 91
        1
 62
     0
 92
       -2
340
14
 93
        0
 40
0.045
309
GRIDFORMAT_END
 95
        4
302
GRIDFORMAT
  1
GRIDFORMAT_BEGIN
 90
        0
 91
        1
 62
     0
 92
       -2
340
14
 93
        0
 40
0.045
309
GRIDFORMAT_END
 95
        8
302
GRIDFORMAT
  1
GRIDFORMAT_BEGIN
 90
        0
 91
        1
 62
     0
 92
       -2
340
14
 93
        0
 40
0.045
309
GRIDFORMAT_END
 95
       16
302
GRIDFORMAT
  1
GRIDFORMAT_BEGIN
 90
        0
 91
        1
 62
     0
 92
       -2
340
14
 93
        0
 40
0.045
309
GRIDFORMAT_END
 95
       32
302
GRIDFORMAT
  1
GRIDFORMAT_BEGIN
 90
        0
 91
        1
 62
     0
 92
       -2
340
14
 93
        0
 40
0.045
309
GRIDFORMAT_END
309
TABLEFORMAT_END
  1
CELLSTYLE_BEGIN
 90
        2
 91
        1
300
_HEADER
309
CELLSTYLE_END
300
CELLSTYLE
  1
TABLEFORMAT_BEGIN
 90
        5
170
     1
 91
        0
 92
        0
 62
   257
 93
        1
300
CONTENTFORMAT
  1
CONTENTFORMAT_BEGIN
 90
        0
 91
        0
 92
        4
 93
        0
300

 40
0.0
140
1.0
 94
        2
 62
     0
340
11
144
4.5
309
CONTENTFORMAT_END
171
     1
301
MARGIN
  1
CELLMARGIN_BEGIN
 40
1.5
 40
1.5
 40
1.5
 40
1.5
 40
1.5
 40
1.5
309
CELLMARGIN_END
 94
        6
 95
        1
302
GRIDFORMAT
  1
GRIDFORMAT_BEGIN
 90
        0
 91
        1
 62
     0
 92
       -2
340
14
 93
        0
 40
0.045
309
GRIDFORMAT_END
 95
        2
302
GRIDFORMAT
  1
GRIDFORMAT_BEGIN
 90
        0
 91
        1
 62
     0
 92
       -2
340
14
 93
        0
 40
0.045
309
GRIDFORMAT_END
 95
        4
302
GRIDFORMAT
  1
GRIDFORMAT_BEGIN
 90
        0
 91
        1
 62
     0
 92
       -2
340
14
 93
        0
 40
0.045
309
GRIDFORMAT_END
 95
        8
302
GRIDFORMAT
  1
GRIDFORMAT_BEGIN
 90
        0
 91
        1
 62
     0
 92
       -2
340
14
 93
        0
 40
0.045
309
GRIDFORMAT_END
 95
       16
302
GRIDFORMAT
  1
GRIDFORMAT_BEGIN
 90
        0
 91
        1
 62
     0
 92
       -2
340
14
 93
        0
 40
0.045
309
GRIDFORMAT_END
 95
       32
302
GRIDFORMAT
  1
GRIDFORMAT_BEGIN
 90
        0
 91
        1
 62
     0
 92
       -2
340
14
 93
        0
 40
0.045
309
GRIDFORMAT_END
309
TABLEFORMAT_END
  1
CELLSTYLE_BEGIN
 90
        3
 91
        2
300
_DATA
309
CELLSTYLE_END
  0
ENDSEC
  0
EOF
